<svg width="32" height="32" xmlns="http://www.w3.org/2000/svg" xmlns:xlink="http://www.w3.org/1999/xlink">
  <defs/>
  <g>
    <path stroke="none" fill="#989AAF" d="M31.5 6.85 L20.2 29.4 Q19.45 31 17.75 31.7 16 32.35 14.3 31.7 12.6 31 11.75 29.4 L0.5 6.85 Q-0.25 5.4 0.1 3.75 0.45 2.15 1.75 1.05 3.15 0 4.7 0 L27.25 0 Q28.9 0 30.2 1.05 31.6 2.15 31.85 3.75 32.3 5.4 31.5 6.85 M4.7 2 Q3.85 2 3.05 2.6 2.25 3.25 2.05 4.2 1.85 5.1 2.25 5.95 L2.3 5.95 13.55 28.5 Q14.05 29.45 15.05 29.85 L15 29.85 Q16 30.2 17.05 29.85 18 29.45 18.4 28.55 L18.4 28.5 29.7 5.95 29.75 5.9 Q30.15 5.15 29.9 4.3 L29.85 4.05 Q29.7 3.2 28.95 2.65 L28.95 2.6 Q28.2 2 27.25 2 L4.7 2"/>
    <path stroke="none" fill="#FFFFFF" d="M4.7 2 L27.25 2 Q28.2 2 28.95 2.6 L28.95 2.65 Q29.7 3.2 29.85 4.05 L29.9 4.3 Q30.15 5.15 29.75 5.9 L29.7 5.95 18.4 28.5 18.4 28.55 Q18 29.45 17.05 29.85 16 30.2 15 29.85 L15.05 29.85 Q14.05 29.45 13.55 28.5 L2.3 5.95 2.25 5.95 Q1.85 5.1 2.05 4.2 2.25 3.25 3.05 2.6 3.85 2 4.7 2 M27.9 4.4 L27.75 4.2 27.55 4.1 27.25 4 4.75 4 Q4.45 4.05 4.2 4.25 L4 4.65 4 4.9 4.1 5.05 15.35 27.6 15.3 27.55 15.65 27.95 15.75 27.95 16.25 28 16.5 27.8 16.6 27.6 27.9 5.05 28 4.9 28 4.8 27.9 4.4"/>
    <path stroke="none" fill="#DADCE7" d="M27.9 4.4 L28 4.8 28 4.9 27.9 5.05 16.6 27.6 16.5 27.8 16.25 28 15.75 27.95 15.65 27.95 15.3 27.55 15.35 27.6 4.1 5.05 4 4.9 4 4.65 4.2 4.25 Q4.45 4.05 4.75 4 L27.25 4 27.55 4.1 27.75 4.2 27.9 4.4"/>
  </g>
</svg>