<svg width="24" height="24" xmlns="http://www.w3.org/2000/svg" xmlns:xlink="http://www.w3.org/1999/xlink">
  <defs/>
  <g>
    <path stroke="none" fill="#989AAF" d="M3.35 2.1 L3.05 2.15 Q2.65 2.2 2.4 2.55 L2.35 2.6 Q2 3.05 2 3.55 L2 20.45 Q2.05 20.95 2.4 21.45 L2.35 21.4 Q2.7 21.85 3.2 21.95 L4.25 21.8 21.15 13.35 21.95 12.5 21.95 11.5 21.95 11.4 21.9 11.35 21.25 10.7 21.15 10.65 4.25 2.2 4.2 2.15 3.35 2.1 M5.15 0.4 L22.05 8.85 Q23.25 9.4 23.8 10.7 24.25 12 23.8 13.25 23.25 14.55 22.05 15.15 L5.15 23.6 2.8 23.9 Q1.6 23.65 0.8 22.65 0 21.6 0 20.45 L0 3.55 Q0 2.35 0.8 1.35 1.6 0.3 2.8 0.15 4.05 -0.2 5.15 0.4"/>
    <path stroke="none" fill="#FFFFFF" d="M3.35 2.1 L4.2 2.15 4.25 2.2 21.15 10.65 21.25 10.7 21.9 11.35 21.95 11.4 21.95 11.5 21.95 12.5 21.15 13.35 4.25 21.8 3.2 21.95 Q2.7 21.85 2.35 21.4 L2.4 21.45 Q2.05 20.95 2 20.45 L2 3.55 Q2 3.05 2.35 2.6 L2.4 2.55 Q2.65 2.2 3.05 2.15 L3.35 2.1 M4 19.7 L19.35 12 4 4.35 4 19.7"/>
    <path stroke="none" fill="#DADCE7" d="M4 19.7 L4 4.35 19.35 12 4 19.7"/>
  </g>
</svg>