<svg width="24" height="24" xmlns="http://www.w3.org/2000/svg" xmlns:xlink="http://www.w3.org/1999/xlink">
  <defs/>
  <g>
    <path stroke="none" fill="#989AAF" d="M4.7 23.8 L3.1 23.95 Q2.1 23.8 1.3 23.15 L1 22.9 Q0.3 22.25 0.05 21.1 L0 20.5 0 20.35 Q0 19.4 0.5 18.65 L8.65 2.35 8.9 1.85 Q9.35 1.1 9.95 0.7 10.5 0.25 11.2 0.1 11.95 -0.05 12.75 0.1 13.35 0.25 13.85 0.55 L14.5 1.05 15.05 1.85 15.1 2 23.5 18.7 Q24 19.45 24 20.35 L24 20.4 23.9 21.1 23.8 21.4 23.6 22.05 22.9 22.95 22.6 23.25 Q21.85 24 20.45 24 L19.3 23.8 12 20.8 4.7 23.8 M10.5 3.1 L10.45 3.25 2.3 19.55 2.2 19.75 2 20.35 2 20.5 2.05 20.8 2.35 21.45 2.45 21.5 2.4 21.5 2.55 21.6 3.4 22 3.5 22 4 21.95 11.25 18.95 Q12 18.65 12.75 18.95 L20 21.95 20.05 21.95 20.45 22 21.2 21.85 21.4 21.7 21.55 21.5 21.8 21.25 21.8 21.15 21.85 21.15 21.9 20.8 22 20.5 22 20.4 22 20.35 21.85 19.8 21.75 19.6 13.35 2.9 13.25 2.75 13.1 2.5 12.8 2.25 12.85 2.3 12.4 2.1 12.3 2.05 11.6 2.05 Q11.4 2.1 11.25 2.25 L11.05 2.4 10.65 2.9 10.5 3.1"/>
    <path stroke="none" fill="#FFFFFF" d="M10.5 3.1 L10.65 2.9 11.05 2.4 11.25 2.25 Q11.4 2.1 11.6 2.05 L12.3 2.05 12.4 2.1 12.85 2.3 12.8 2.25 13.1 2.5 13.25 2.75 13.35 2.9 21.75 19.6 21.85 19.8 22 20.35 22 20.4 22 20.5 21.9 20.8 21.85 21.15 21.8 21.15 21.8 21.25 21.55 21.5 21.4 21.7 21.2 21.85 20.45 22 20.05 21.95 20 21.95 12.75 18.95 Q12 18.65 11.25 18.95 L4 21.95 3.5 22 3.4 22 2.55 21.6 2.4 21.5 2.45 21.5 2.35 21.45 2.05 20.8 2 20.5 2 20.35 2.2 19.75 2.3 19.55 10.45 3.25 10.5 3.1 M10.5 17.1 Q12 16.45 13.55 17.1 L13.5 17.1 19.45 19.55 12 4.7 4.55 19.55 10.5 17.1"/>
    <path stroke="none" fill="#DADCE7" d="M10.5 17.1 L4.55 19.55 12 4.7 19.45 19.55 13.5 17.1 13.55 17.1 Q12 16.45 10.5 17.1"/>
  </g>
</svg>