<svg width="64" height="64" xmlns="http://www.w3.org/2000/svg" xmlns:xlink="http://www.w3.org/1999/xlink">
  <defs/>
  <g>
    <path stroke="none" fill="#FFFFFF" d="M27.45 4.05 L27.2 4.05 26.8 4.05 26.55 4.05 26 4 6 4 Q4.35 4 4.1 5.3 L4.05 5.5 4 6 4 24 4.05 24.55 4.05 24.8 4.05 25.2 4.05 25.45 4 26 4 54 Q4 56 6 56 L26 56 26.55 56 26.8 55.95 27.2 55.95 27.45 56 28 56 58 56 Q60 56 60 54 L60 26 60 25.45 59.95 25.2 59.95 24.8 60 24.55 60 24 60 6 59.95 5.3 60 5.35 Q59.65 4 58 4 L28 4 27.45 4.05 M61.95 25.2 L62 26 62 54 Q62 58 58 58 L28 58 27.2 57.95 26.8 57.95 26 58 6 58 Q2 58 2 54 L2 26 2.05 25.2 2.05 24.8 2 24 2 6 2.1 5.05 Q2.5 2 6 2 L26 2 26.8 2.05 27.2 2.05 28 2 58 2 Q61.5 2 61.95 5.05 L62 6 62 24 61.95 24.8 61.95 25.2"/>
    <path stroke="none" fill="#DADCE7" d="M27.45 4.05 L28 4 58 4 Q59.65 4 60 5.35 L59.95 5.3 60 6 60 24 60 24.55 59.95 24.8 59.95 25.2 60 25.45 60 26 60 54 Q60 56 58 56 L28 56 27.45 56 27.2 55.95 26.8 55.95 26.55 56 26 56 6 56 Q4 56 4 54 L4 26 4.05 25.45 4.05 25.2 4.05 24.8 4.05 24.55 4 24 4 6 4.05 5.5 4.1 5.3 Q4.35 4 6 4 L26 4 26.55 4.05 26.8 4.05 27.2 4.05 27.45 4.05"/>
    <path stroke="none" fill="#989AAF" d="M0 24.75 L0 6 Q0 0 6 0 L26 0 27 0.05 28 0 58 0 Q64 0 64 6 L64 24.75 63.95 25 64 25.4 64 54.25 Q63.85 60 58 60 L28 60 27 59.95 26 60 6 60 Q0.15 60 0 54.25 L0 25.4 0.05 25 0 24.75 M61.95 25.2 L61.95 24.8 62 24 62 6 61.95 5.05 Q61.5 2 58 2 L28 2 27.2 2.05 26.8 2.05 26 2 6 2 Q2.5 2 2.1 5.05 L2 6 2 24 2.05 24.8 2.05 25.2 2 26 2 54 Q2 58 6 58 L26 58 26.8 57.95 27.2 57.95 28 58 58 58 Q62 58 62 54 L62 26 61.95 25.2"/>
    <path stroke="none" fill="#FF0000" d="M64 24.75 L64 25.4 63.95 25 64 24.75 M0 25.4 L0 24.75 0.05 25 0 25.4"/>
    <path stroke="none" fill="#666880" d="M64 54.25 L64 58 Q64 64 58 64 L28 64 27 63.95 26 64 6 64 Q0 64 0 58 L0 54.25 Q0.15 60 6 60 L26 60 27 59.95 28 60 58 60 Q63.85 60 64 54.25"/>
  </g>
</svg>