<svg width="32" height="32" xmlns="http://www.w3.org/2000/svg" xmlns:xlink="http://www.w3.org/1999/xlink">
  <defs/>
  <g>
    <path stroke="none" fill="#FFFFFF" d="M16 2 Q21.8 2 25.9 6.1 30 10.2 30 16 30 21.8 25.9 25.9 21.8 30 16 30 10.2 30 6.1 25.9 2 21.8 2 16 2 10.2 6.05 6.1 L6.1 6.05 Q10.2 2 16 2 M16 4 Q11 4 7.5 7.5 4 11 4 16 4 21 7.5 24.45 L7.5 24.5 Q11 28 16 28 20.95 28 24.45 24.5 L24.5 24.45 Q28 20.95 28 16 28 11 24.5 7.5 L24.45 7.5 Q21 4 16 4"/>
    <path stroke="none" fill="#DADCE7" d="M16 4 Q21 4 24.45 7.5 L24.5 7.5 Q28 11 28 16 28 20.95 24.5 24.45 L24.45 24.5 Q20.95 28 16 28 11 28 7.5 24.5 L7.5 24.45 Q4 21 4 16 4 11 7.5 7.5 11 4 16 4"/>
    <path stroke="none" fill="#989AAF" d="M16 2 Q10.2 2 6.1 6.05 L6.05 6.1 Q2 10.2 2 16 2 21.8 6.1 25.9 10.2 30 16 30 21.8 30 25.9 25.9 30 21.8 30 16 30 10.2 25.9 6.1 21.8 2 16 2 M32 16 Q32 22.65 27.3 27.3 22.65 32 16 32 9.35 32 4.65 27.3 0 22.65 0 16 0 9.35 4.65 4.65 9.35 0 16 0 22.65 0 27.3 4.65 32 9.35 32 16"/>
  </g>
</svg>