<svg width="41" height="36" xmlns="http://www.w3.org/2000/svg" xmlns:xlink="http://www.w3.org/1999/xlink">
  <defs/>
  <g>
    <path stroke="none" fill="#FFFFFF" d="M30.7 5.3 Q35.55 10.2 35.9 17 L37.9 17 Q39 17 39.9 17.75 L39.85 17.7 Q40.75 18.4 41 19.3 L41 19.55 Q41 20.55 40.4 21.35 L40.35 21.4 33.95 28.2 Q33.35 28.85 32.3 29.1 L30.6 29.05 30.6 29.1 29.1 28.2 29.15 28.2 22.75 21.4 Q21.85 20.5 22.05 19.4 L22.1 19.4 Q22.2 18.45 23.1 17.75 23.9 17 25.15 17 L27.1 17 Q26.8 13.9 24.45 11.55 21.7 8.8 17.95 8.8 14.2 8.8 11.45 11.55 L11.5 11.55 Q8.8 14.25 8.8 18 8.8 21.7 11.55 24.45 L11.6 24.45 Q14.2 27.2 17.95 27.2 19.8 27.2 21.1 28.5 22.35 29.7 22.35 31.6 22.35 33.45 21.15 34.75 L21.1 34.8 Q19.8 36 17.95 36 10.7 36 5.3 30.75 L5.3 30.7 Q0 25.35 0 18 0 10.55 5.3 5.3 10.7 0 17.95 0 25.4 0 30.7 5.3"/>
  </g>
</svg>