<svg width="38" height="26" xmlns="http://www.w3.org/2000/svg" xmlns:xlink="http://www.w3.org/1999/xlink">
  <defs/>
  <g>
    <path stroke="none" fill="#000000" d="M34 0 Q35.55 0 36.75 1.1 L36.85 1.15 Q37.9 2.2 38 3.8 38.1 5.25 37.15 6.55 L37.1 6.6 22.1 24.6 22.05 24.65 20.3 25.85 20.1 25.9 Q18.95 26.15 17.95 25.9 L17.85 25.85 Q16.6 25.45 15.95 24.55 L16 24.6 1 6.6 Q-0.15 5.3 0 3.8 0.1 2.2 1.25 1.15 L1.3 1.1 Q2.4 0 4 0 L34 0 M17.5 23.3 L18.45 23.95 19.6 23.95 20.55 23.3 35.55 5.3 Q36.05 4.65 36 3.9 35.95 3.1 35.4 2.55 34.8 2 34 2 L4 2 Q3.2 2 2.65 2.55 2.05 3.1 2 3.9 1.95 4.65 2.5 5.3 L17.5 23.3"/>
    <path stroke="none" fill="#FFFFFF" d="M17.5 23.3 L2.5 5.3 Q1.95 4.65 2 3.9 2.05 3.1 2.65 2.55 3.2 2 4 2 L34 2 Q34.8 2 35.4 2.55 35.95 3.1 36 3.9 36.05 4.65 35.55 5.3 L20.55 23.3 19.6 23.95 18.45 23.95 17.5 23.3"/>
  </g>
</svg>