<svg width="64" height="64" xmlns="http://www.w3.org/2000/svg" xmlns:xlink="http://www.w3.org/1999/xlink">
  <defs/>
  <g>
    <path stroke="none" fill="#FFFFFF" d="M6 2 Q2 2 2 6 L2 58 Q2 61.9 5.85 62 L58.2 62 Q62 61.9 62 58 L62 6 Q62 2 58 2 L6 2 M60 7.9 L60 58.15 Q59.95 60 58 60 L6 60 Q4.05 60 4 58.15 L4 7.9 Q4.05 6 6 6 L58 6 Q59.95 6 60 7.9 M6 0 L58 0 Q64 0 64 6 L64 58 Q64 64 58 64 L6 64 Q0 64 0 58 L0 6 Q0 0 6 0"/>
    <path stroke="none" fill="#DADCE7" d="M4 7.9 L4 6 Q4 4 6 4 L58 4 Q60 4 60 6 L60 7.9 Q59.95 6 58 6 L6 6 Q4.05 6 4 7.9"/>
    <path stroke="none" fill="#989AAF" d="M4 7.9 L4 58.15 Q4.05 60 6 60 L58 60 Q59.95 60 60 58.15 L60 7.9 60 6 Q60 4 58 4 L6 4 Q4 4 4 6 L4 7.9 M6 2 L58 2 Q62 2 62 6 L62 58 Q62 61.9 58.2 62 L5.85 62 Q2 61.9 2 58 L2 6 Q2 2 6 2"/>
  </g>
</svg>