<svg width="64" height="64" xmlns="http://www.w3.org/2000/svg" xmlns:xlink="http://www.w3.org/1999/xlink">
  <defs/>
  <g>
    <path stroke="none" fill="#9696A3" d="M0 24.75 L0 6 Q0 0 6 0 L58 0 Q64 0 64 6 L64 24.75 63.95 25 64 25.4 64 54.25 Q63.85 60 58 60 L6 60 Q0.15 60 0 54.25 L0 25.4 0.05 25 0 24.75 M61.95 25.2 L61.95 24.8 62 24 62 6 61.95 5.05 Q61.5 2 58 2 L6 2 Q2.5 2 2.1 5.05 L2 6 2 24 2.05 24.8 2.05 25.2 2 26 2 54 Q2 58 6 58 L58 58 Q62 58 62 54 L62 26 61.95 25.2"/>
    <path stroke="none" fill="#FFFFFF" d="M61.95 25.2 L62 26 62 54 Q62 58 58 58 L6 58 Q2 58 2 54 L2 26 2.05 25.2 2.05 24.8 2 24 2 6 2.1 5.05 Q2.5 2 6 2 L58 2 Q61.5 2 61.95 5.05 L62 6 62 24 61.95 24.8 61.95 25.2 M6 4 Q4.35 4 4.1 5.3 L4.05 5.5 4 6 4 24 4.05 24.55 4.05 24.8 4.05 25.2 4.05 25.45 4 26 4 54 Q4 56 6 56 L58 56 Q60 56 60 54 L60 26 60 25.45 59.95 25.2 59.95 24.8 60 24.55 60 24 60 6 59.95 5.3 60 5.35 Q59.65 4 58 4 L6 4"/>
    <path stroke="none" fill="#DADCE7" d="M6 4 L58 4 Q59.65 4 60 5.35 L59.95 5.3 60 6 60 24 60 24.55 59.95 24.8 59.95 25.2 60 25.45 60 26 60 54 Q60 56 58 56 L6 56 Q4 56 4 54 L4 26 4.05 25.45 4.05 25.2 4.05 24.8 4.05 24.55 4 24 4 6 4.05 5.5 4.1 5.3 Q4.35 4 6 4 M26.15 6 L26 6 6 6 6 24 6 24.15 6.05 24.55 6.05 24.8 6.05 25.2 6.05 25.45 6.05 25.8 6 26 6 54 26 54 26.3 54 58 54 58 26 58 25.75 57.95 25.2 57.95 24.8 58 24.3 58 24 58 6 26.15 6 M55.95 25.05 L56 25.9 56 26 56 52 8 52 8 26.1 8.05 25.45 8.05 25.2 8.05 24.8 8.05 24.55 8.05 24.5 8 24 8 8 56 8 56 24 56 24.1 Q55.9 24.55 55.95 24.95 L55.95 25.05"/>
    <path stroke="none" fill="#2FD792" d="M55.95 25.05 L55.95 24.95 Q55.9 24.55 56 24.1 L56 24 56 8 8 8 8 24 8.05 24.5 8.05 24.55 8.05 24.8 8.05 25.2 8.05 25.45 8 26.1 8 52 56 52 56 26 56 25.9 55.95 25.05 M26.15 6 L58 6 58 24 58 24.3 57.95 24.8 57.95 25.2 58 25.75 58 26 58 54 26.3 54 26 54 6 54 6 26 6.05 25.8 6.05 25.45 6.05 25.2 6.05 24.8 6.05 24.55 6 24.15 6 24 6 6 26 6 26.15 6"/>
    <path stroke="none" fill="#FF0000" d="M64 24.75 L64 25.4 63.95 25 64 24.75 M0 25.4 L0 24.75 0.05 25 0 25.4"/>
    <path stroke="none" fill="#747487" d="M64 54.25 L64 58 Q64 64 58 64 L6 64 Q0 64 0 58 L0 54.25 Q0.15 60 6 60 L58 60 Q63.85 60 64 54.25"/>
  </g>
</svg>