<svg width="64" height="64" xmlns="http://www.w3.org/2000/svg" xmlns:xlink="http://www.w3.org/1999/xlink">
  <defs/>
  <g>
    <path stroke="none" fill="#FFFFFF" d="M15.05 15.05 Q8 22.05 8 32 8 41.9 15.05 48.9 L15.05 48.95 Q17.3 51.2 19.9 52.75 25.25 56 32 56 38.75 56 44.15 52.75 46.7 51.2 48.95 48.95 L49 48.9 Q56 41.9 56 32 56 22.05 49 15.05 L48.95 15.05 48.95 15 48.55 14.6 Q41.65 8 32 8 22.3 8 15.4 14.65 L15.05 15 15.05 15.05 M13.65 13.6 L13.95 13.25 Q21.5 6 32 6 42.5 6 50.05 13.25 L50.4 13.6 50.4 13.65 Q58 21.2 58 32 58 42.75 50.4 50.35 L47.7 52.75 Q40.9 58 32 58 23.1 58 16.35 52.75 L13.65 50.35 13.6 50.35 Q6 42.75 6 32 6 21.2 13.6 13.65 L13.65 13.6"/>
    <path stroke="none" fill="#DADCE7" d="M15.05 15.05 L15.05 15 15.4 14.65 Q22.3 8 32 8 41.65 8 48.55 14.6 L48.95 15 48.95 15.05 49 15.05 Q56 22.05 56 32 56 41.9 49 48.9 L48.95 48.95 Q46.7 51.2 44.15 52.75 38.75 56 32 56 25.25 56 19.9 52.75 17.3 51.2 15.05 48.95 L15.05 48.9 Q8 41.9 8 32 8 22.05 15.05 15.05"/>
    <path stroke="none" fill="#2FD792" d="M4 32 Q4 43.6 12.2 51.75 L13.25 52.75 Q21.15 60 32 60 42.85 60 50.75 52.75 L51.8 51.75 Q60 43.6 60 32 60 20.35 51.8 12.2 L51.6 11.95 Q43.4 4 32 4 20.6 4 12.45 11.95 L12.2 12.2 Q4 20.35 4 32 M10.75 10.8 Q19.55 2 32 2 44.45 2 53.25 10.8 62 19.55 62 32 62 44.1 53.65 52.75 L53.25 53.2 Q44.4 62 32 62 19.6 62 10.8 53.2 L10.35 52.75 Q2 44.1 2 32 2 19.55 10.8 10.8 L10.75 10.8"/>
    <path stroke="none" fill="#16BB77" d="M4 32 Q4 20.35 12.2 12.2 L12.45 11.95 Q20.6 4 32 4 43.4 4 51.6 11.95 L51.8 12.2 Q60 20.35 60 32 60 43.6 51.8 51.75 L50.75 52.75 Q42.85 60 32 60 21.15 60 13.25 52.75 L12.2 51.75 Q4 43.6 4 32 M13.65 13.6 L13.6 13.65 Q6 21.2 6 32 6 42.75 13.6 50.35 L13.65 50.35 16.35 52.75 Q23.1 58 32 58 40.9 58 47.7 52.75 L50.4 50.35 Q58 42.75 58 32 58 21.2 50.4 13.65 L50.4 13.6 50.05 13.25 Q42.5 6 32 6 21.5 6 13.95 13.25 L13.65 13.6"/>
    <path stroke="none" fill="#029357" d="M10.75 10.8 L10.8 10.8 Q2 19.55 2 32 2 44.1 10.35 52.75 L10.8 53.2 Q19.6 62 32 62 44.4 62 53.25 53.2 L53.65 52.75 Q62 44.1 62 32 62 19.55 53.25 10.8 44.45 2 32 2 19.55 2 10.75 10.8 M64 32 Q64 43.95 56.4 52.75 L54.65 54.6 Q45.25 64 32 64 18.75 64 9.35 54.6 L7.65 52.75 Q3.85 48.4 1.95 43.3 0 38.05 0 32 0 25.95 1.95 20.7 4.25 14.45 9.35 9.35 18.75 0 32 0 45.25 0 54.65 9.35 64 18.7 64 32"/>
  </g>
</svg>