<svg width="18" height="18" xmlns="http://www.w3.org/2000/svg" xmlns:xlink="http://www.w3.org/1999/xlink">
  <defs/>
  <g>
    <path stroke="none" fill="#FFFFFF" d="M6.85 1.15 L9 3.3 11.15 1.15 11.2 1.15 Q12.35 0 14 0 L14.05 0 Q15.65 0 16.85 1.15 L16.85 1.2 Q18 2.35 18 4 L18 4.05 Q18 5.65 16.85 6.85 L14.7 9 16.85 11.15 16.85 11.2 Q18 12.35 18 14 L18 14.05 Q18 15.65 16.85 16.85 15.65 18 14.05 18 L14 18 Q12.35 18 11.2 16.85 L11.15 16.85 9 14.7 6.85 16.85 Q5.65 18 4.05 18 L4 18 Q2.35 18 1.2 16.85 L1.15 16.85 Q0 15.65 0 14.05 L0 14 Q0 12.35 1.15 11.2 L1.15 11.15 3.3 9 1.15 6.85 Q0 5.65 0 4.05 L0 4 Q0 2.35 1.15 1.2 L1.2 1.15 Q2.35 0 4 0 L4.05 0 Q5.65 0 6.85 1.15 M5.45 15.45 L9 11.85 12.6 15.45 Q13.15 16 14 16 14.85 16 15.45 15.45 16 14.85 16 14 16 13.15 15.45 12.6 L11.85 9 15.45 5.45 Q16 4.85 16 4 16 3.15 15.45 2.6 14.85 2 14 2 13.15 2 12.6 2.6 L9 6.15 5.45 2.6 Q4.85 2 4 2 3.15 2 2.6 2.6 2 3.15 2 4 2 4.85 2.6 5.45 L6.15 9 2.6 12.6 Q2 13.15 2 14 2 14.85 2.6 15.45 3.15 16 4 16 4.85 16 5.45 15.45"/>
    <path stroke="none" fill="#2FD792" d="M5.45 15.45 Q4.85 16 4 16 3.15 16 2.6 15.45 2 14.85 2 14 2 13.15 2.6 12.6 L6.15 9 2.6 5.45 Q2 4.85 2 4 2 3.15 2.6 2.6 3.15 2 4 2 4.85 2 5.45 2.6 L9 6.15 12.6 2.6 Q13.15 2 14 2 14.85 2 15.45 2.6 16 3.15 16 4 16 4.85 15.45 5.45 L11.85 9 15.45 12.6 Q16 13.15 16 14 16 14.85 15.45 15.45 14.85 16 14 16 13.15 16 12.6 15.45 L9 11.85 5.45 15.45"/>
  </g>
</svg>