<svg width="32" height="32" xmlns="http://www.w3.org/2000/svg" xmlns:xlink="http://www.w3.org/1999/xlink">
  <defs/>
  <g>
    <path stroke="none" fill="#CD0B2A" d="M31.7 25.75 Q32.15 26.8 31.95 27.9 31.75 29.2 30.85 30.3 L30.55 30.65 Q29.65 31.6 28.1 31.95 L27.35 32 27.1 32 Q25.85 32 24.85 31.35 L3.15 20.5 2.45 20.15 0.9 18.75 Q0.35 18 0.15 17.1 -0.1 16.05 0.1 15 L0.7 13.55 1.4 12.7 Q1.9 12.2 2.45 11.95 L2.65 11.85 24.9 0.65 Q25.9 0 27.1 0 L27.2 0 28.15 0.15 28.55 0.25 29.4 0.55 30.6 1.45 31 1.9 Q32 2.9 32 4.75 L31.7 6.25 27.75 16 31.7 25.75 M28.5 2.35 L28.1 2.2 27.7 2.1 27.65 2.1 27.2 2 27.1 2 Q26.5 2 26 2.3 L25.8 2.45 3.55 13.65 3.35 13.75 3.35 13.7 2.85 14.1 2.8 14.15 2.35 14.65 2.4 14.65 2.05 15.4 2.1 16.55 2.15 16.75 2.5 17.55 2.5 17.6 3.45 18.4 3.9 18.65 4.05 18.7 25.75 29.55 26 29.7 27.1 30 27.35 30 27.75 29.95 27.7 30 Q28.6 29.8 29.1 29.3 L29.15 29.25 29.3 29.05 Q29.85 28.4 29.95 27.6 L29.85 26.5 25.9 16.75 Q25.6 16 25.9 15.25 L29.85 5.5 30 4.75 Q30 3.8 29.6 3.3 L29.4 3.05 29.2 2.85 28.55 2.35 28.5 2.35"/>
    <path stroke="none" fill="#FF627B" d="M28.5 2.35 L28.55 2.35 29.2 2.85 29.4 3.05 29.6 3.3 Q30 3.8 30 4.75 L29.85 5.5 25.9 15.25 Q25.6 16 25.9 16.75 L29.85 26.5 29.95 27.6 Q29.85 28.4 29.3 29.05 L29.15 29.25 29.1 29.3 Q28.6 29.8 27.7 30 L27.75 29.95 27.35 30 27.1 30 26 29.7 25.75 29.55 4.05 18.7 3.9 18.65 3.45 18.4 2.5 17.6 2.5 17.55 2.15 16.75 2.1 16.55 2.05 15.4 2.4 14.65 2.35 14.65 2.8 14.15 2.85 14.1 3.35 13.7 3.35 13.75 3.55 13.65 25.8 2.45 26 2.3 Q26.5 2 27.1 2 L27.2 2 27.65 2.1 27.7 2.1 28.1 2.2 28.5 2.35 M4 15.85 L4 16 4.1 16.35 4.1 16.4 4.5 16.7 4.6 16.75 4.7 16.8 4.95 16.9 26.65 27.75 26.7 27.75 27.1 28 27.25 28 27.3 28 27.5 27.95 27.6 27.95 28.2 28 27.85 27.7 27.75 27.8 28 27.25 24.1 17.5 Q23.5 16 24.1 14.5 L28 4.75 28 4.55 27.9 4.4 27.85 4.35 27.75 4.2 27.65 4.15 27.6 4.1 27.6 4.15 27.5 4.1 27.25 4.05 27.2 4.05 27.15 4 27.05 4 26.8 4.15 26.7 4.25 4.45 15.45 4.3 15.5 4.25 15.55 4.15 15.55 4.05 15.6 3.9 15.65 3.95 15.75 4.15 15.6 4.1 15.7 4.05 15.75 4 15.75 4 15.85"/>
    <path stroke="none" fill="#EE2747" d="M4 15.85 L4 15.75 4.05 15.75 4.1 15.7 4.15 15.6 3.95 15.75 3.9 15.65 4.05 15.6 4.15 15.55 4.25 15.55 4.3 15.5 4.45 15.45 26.7 4.25 26.8 4.15 27.05 4 27.15 4 27.2 4.05 27.25 4.05 27.5 4.1 27.6 4.15 27.6 4.1 27.65 4.15 27.75 4.2 27.85 4.35 27.9 4.4 28 4.55 28 4.75 24.1 14.5 Q23.5 16 24.1 17.5 L28 27.25 27.75 27.8 27.85 27.7 28.2 28 27.6 27.95 27.5 27.95 27.3 28 27.25 28 27.1 28 26.7 27.75 26.65 27.75 4.95 16.9 4.7 16.8 4.6 16.75 4.5 16.7 4.1 16.4 4.1 16.35 4 16 4 15.85"/>
  </g>
</svg>