<svg width="24" height="24" xmlns="http://www.w3.org/2000/svg" xmlns:xlink="http://www.w3.org/1999/xlink">
  <defs/>
  <g>
    <path stroke="none" fill="#CD0B2A" d="M21.15 10.7 L4.45 2.3 4.25 2.2 3.7 2 3.6 2 3.45 2.05 3.25 2.1 2.9 2.2 2.85 2.2 2.75 2.25 2.55 2.45 2.45 2.55 2.2 2.9 2 3.55 2.1 3.9 2.1 3.95 5.05 11.25 Q5.35 12 5.05 12.75 L2.1 20.05 2.1 20.1 2.05 20.6 2.05 20.65 2.4 21.45 2.55 21.6 2.6 21.65 3.35 22 3.5 22 3.7 22 4.25 21.85 4.45 21.7 20.8 13.6 21.2 13.4 21.7 12.95 21.8 12.8 22 12.5 22 11.65 21.8 11.2 21.75 11.1 21.6 11 21.4 10.8 21.15 10.7 M0.25 19.3 L3.2 12 0.25 4.7 0 3.55 Q0 2.2 0.75 1.45 L1.05 1.1 1.95 0.4 2.6 0.2 2.9 0.1 3.6 0 3.7 0 Q4.6 0 5.35 0.5 L22.05 8.9 22.2 8.95 23 9.55 23.5 10.15 23.95 11.25 23.95 12.85 23.35 14.05 Q22.95 14.65 22.2 15.1 L21.7 15.4 5.35 23.5 Q4.6 24 3.7 24 L3.5 24 2.95 23.95 Q1.75 23.7 1.1 23 L0.85 22.75 Q0.2 21.9 0.05 20.95 -0.1 20.1 0.25 19.3"/>
    <path stroke="none" fill="#FF627B" d="M21.15 10.7 L21.4 10.8 21.6 11 21.75 11.1 21.8 11.2 22 11.65 22 12.5 21.8 12.8 21.7 12.95 21.2 13.4 20.8 13.6 4.45 21.7 4.25 21.85 3.7 22 3.5 22 3.35 22 2.6 21.65 2.55 21.6 2.4 21.45 2.05 20.65 2.05 20.6 2.1 20.1 2.1 20.05 5.05 12.75 Q5.35 12 5.05 11.25 L2.1 3.95 2.1 3.9 2 3.55 2.2 2.9 2.45 2.55 2.55 2.45 2.75 2.25 2.85 2.2 2.9 2.2 3.25 2.1 3.45 2.05 3.6 2 3.7 2 4.25 2.2 4.45 2.3 21.15 10.7 M6.9 10.5 Q7.5 12 6.9 13.5 L4.5 19.45 19.45 12.05 4.5 4.55 6.9 10.5"/>
    <path stroke="none" fill="#EE2747" d="M6.9 10.5 L4.5 4.55 19.45 12.05 4.5 19.45 6.9 13.5 Q7.5 12 6.9 10.5"/>
  </g>
</svg>