<svg width="24" height="24" xmlns="http://www.w3.org/2000/svg" xmlns:xlink="http://www.w3.org/1999/xlink">
  <defs/>
  <g>
    <path stroke="none" fill="#CD0B2A" d="M20.15 2.1 L20.05 2.1 12.75 5.05 Q12 5.35 11.25 5.05 L3.95 2.1 3.9 2.1 3.5 2.05 3.4 2.05 Q2.95 2.1 2.55 2.4 L2.4 2.55 2.45 2.55 2.35 2.6 Q2.1 2.85 2 3.35 L2 3.5 2 3.7 2.2 4.25 2.3 4.45 10.45 20.75 10.5 20.9 10.65 21.15 11.15 21.75 11.65 21.95 11.75 22 12.4 22 12.75 21.85 13.1 21.55 13.2 21.4 13.35 21.1 21.75 4.45 21.85 4.25 22 3.7 22 3.6 22 3.45 21.9 3.25 21.85 2.9 21.8 2.85 21.8 2.75 21.55 2.55 21.4 2.35 21.2 2.2 20.45 2 20.15 2.1 M4.7 0.25 L12 3.2 19.3 0.25 20.45 0 Q21.85 0 22.6 0.75 L22.9 1.05 23.6 1.95 23.8 2.6 23.9 2.9 24 3.6 24 3.7 Q24 4.6 23.5 5.35 L15.1 22 15.05 22.15 14.5 22.95 13.85 23.5 12.75 23.95 11.2 23.9 9.95 23.35 8.9 22.15 8.65 21.65 0.5 5.35 Q0 4.6 0 3.7 L0 3.5 0.05 2.95 Q0.3 1.75 1 1.1 L1.3 0.85 Q2.1 0.2 3.1 0.05 L4.7 0.25"/>
    <path stroke="none" fill="#FF627B" d="M20.15 2.1 L20.45 2 21.2 2.2 21.4 2.35 21.55 2.55 21.8 2.75 21.8 2.85 21.85 2.9 21.9 3.25 22 3.45 22 3.6 22 3.7 21.85 4.25 21.75 4.45 13.35 21.1 13.2 21.4 13.1 21.55 12.75 21.85 12.4 22 11.75 22 11.65 21.95 11.15 21.75 10.65 21.15 10.5 20.9 10.45 20.75 2.3 4.45 2.2 4.25 2 3.7 2 3.5 2 3.35 Q2.1 2.85 2.35 2.6 L2.45 2.55 2.4 2.55 2.55 2.4 Q2.95 2.1 3.4 2.05 L3.5 2.05 3.9 2.1 3.95 2.1 11.25 5.05 Q12 5.35 12.75 5.05 L20.05 2.1 20.15 2.1 M13.5 6.9 Q12 7.5 10.5 6.9 L4.6 4.55 12 19.35 19.5 4.5 13.5 6.9"/>
    <path stroke="none" fill="#EE2747" d="M13.5 6.9 L19.5 4.5 12 19.35 4.6 4.55 10.5 6.9 Q12 7.5 13.5 6.9"/>
  </g>
</svg>