<svg width="32" height="32" xmlns="http://www.w3.org/2000/svg" xmlns:xlink="http://www.w3.org/1999/xlink">
  <defs/>
  <g>
    <path stroke="none" fill="#CD0B2A" d="M0.3 25.75 L4.25 16 0.3 6.25 Q0 5.55 0 4.75 0 2.9 1 1.9 L1.4 1.45 Q2 0.8 2.6 0.55 L3.45 0.25 3.85 0.15 4.8 0 4.9 0 Q6.1 0 7.1 0.65 L29.4 11.85 29.6 11.95 30.65 12.7 31.35 13.55 Q31.75 14.2 31.95 15 32.15 16.05 31.9 17.1 L31.15 18.75 29.6 20.15 28.9 20.5 7.15 31.35 Q6.15 32 4.9 32 L4.65 32 3.9 31.95 Q2.35 31.6 1.45 30.65 L1.15 30.3 Q0.25 29.2 0.05 27.9 -0.15 26.8 0.3 25.75 M3.5 2.35 L3.45 2.35 2.8 2.85 2.6 3.05 2.4 3.3 Q2 3.8 2 4.75 L2.15 5.5 6.1 15.25 Q6.4 16 6.1 16.75 L2.15 26.5 Q1.95 27 2.05 27.6 2.15 28.4 2.7 29.05 L2.85 29.25 2.9 29.3 Q3.4 29.8 4.3 30 L4.25 29.95 4.65 30 4.9 30 6 29.7 6.25 29.55 28 18.7 28.15 18.65 28.6 18.4 29.55 17.6 29.55 17.55 29.9 16.75 29.95 16.55 30 15.4 29.65 14.65 29.7 14.65 29.25 14.15 29.2 14.1 28.7 13.7 28.7 13.75 28.5 13.65 6.2 2.45 6 2.3 4.9 2 4.8 2 4.35 2.1 4.3 2.1 3.9 2.2 3.5 2.35"/>
    <path stroke="none" fill="#FF627B" d="M3.5 2.35 L3.9 2.2 4.3 2.1 4.35 2.1 4.8 2 4.9 2 6 2.3 6.2 2.45 28.5 13.65 28.7 13.75 28.7 13.7 29.2 14.1 29.25 14.15 29.7 14.65 29.65 14.65 30 15.4 29.95 16.55 29.9 16.75 29.55 17.55 29.55 17.6 28.6 18.4 28.15 18.65 28 18.7 6.25 29.55 6 29.7 4.9 30 4.65 30 4.25 29.95 4.3 30 Q3.4 29.8 2.9 29.3 L2.85 29.25 2.7 29.05 Q2.15 28.4 2.05 27.6 1.95 27 2.15 26.5 L6.1 16.75 Q6.4 16 6.1 15.25 L2.15 5.5 2 4.75 Q2 3.8 2.4 3.3 L2.6 3.05 2.8 2.85 3.45 2.35 3.5 2.35 M28.05 15.8 L27.95 15.7 27.9 15.6 28.1 15.75 28.15 15.65 28 15.6 27.9 15.55 27.8 15.55 27.75 15.5 27.6 15.45 5.3 4.25 5.2 4.15 4.95 4 4.85 4 4.8 4.05 4.75 4.05 4.5 4.1 4.4 4.15 4.4 4.1 4.35 4.15 4.25 4.2 4.15 4.35 4.1 4.4 4 4.55 4 4.75 7.95 14.5 Q8.55 16 7.95 17.5 L4 27.25 4.25 27.8 4.15 27.7 3.8 28 4.4 27.95 4.5 27.95 4.7 28 4.75 28 4.9 28 5.3 27.75 5.35 27.75 27.1 16.9 27.35 16.8 27.45 16.75 27.55 16.7 27.95 16.4 27.95 16.35 28.05 16 28.05 15.85 28.05 15.8"/>
    <path stroke="none" fill="#EE2747" d="M28.05 15.8 L28.05 15.85 28.05 16 27.95 16.35 27.95 16.4 27.55 16.7 27.45 16.75 27.35 16.8 27.1 16.9 5.35 27.75 5.3 27.75 4.9 28 4.75 28 4.7 28 4.5 27.95 4.4 27.95 3.8 28 4.15 27.7 4.25 27.8 4 27.25 7.95 17.5 Q8.55 16 7.95 14.5 L4 4.75 4 4.55 4.1 4.4 4.15 4.35 4.25 4.2 4.35 4.15 4.4 4.1 4.4 4.15 4.5 4.1 4.75 4.05 4.8 4.05 4.85 4 4.95 4 5.2 4.15 5.3 4.25 27.6 15.45 27.75 15.5 27.8 15.55 27.9 15.55 28 15.6 28.15 15.65 28.1 15.75 27.9 15.6 27.95 15.7 28.05 15.8"/>
  </g>
</svg>