<svg width="32" height="32" xmlns="http://www.w3.org/2000/svg" xmlns:xlink="http://www.w3.org/1999/xlink">
  <defs/>
  <g>
    <path stroke="none" fill="#FF627B" d="M30 27.3 Q30 28.15 29.4 28.95 28.75 29.75 27.8 29.95 L26.05 29.75 26.05 29.7 3.55 18.45 Q2.6 17.95 2.2 16.95 L2.2 17 Q1.85 16 2.2 14.95 2.6 14 3.5 13.6 L3.55 13.6 26.05 2.3 26.1 2.25 27.7 2.1 27.95 2.15 Q28.8 2.3 29.35 3.05 L29.4 3.05 Q30 3.8 30 4.75 L30 27.3 M27.6 4.1 L27.2 4 27.1 4 26.95 4.1 4.45 15.4 4.25 15.5 4.05 15.75 4.1 16.25 4.1 16.35 4.5 16.7 4.45 16.65 26.95 27.9 27.1 28 27.35 28 27.75 27.8 28 27.25 28 4.75 27.9 4.45 27.8 4.25 27.6 4.1"/>
    <path stroke="none" fill="#CD0B2A" d="M25.15 0.5 Q26.6 -0.3 28.25 0.15 29.85 0.4 30.95 1.8 32 3.1 32 4.75 L32 27.3 Q32 28.85 30.95 30.25 29.85 31.55 28.25 31.9 26.6 32.25 25.15 31.5 L2.65 20.25 Q1.05 19.4 0.35 17.7 -0.3 16 0.35 14.25 1.05 12.55 2.65 11.8 L25.15 0.5 M30 27.3 L30 4.75 Q30 3.8 29.4 3.05 L29.35 3.05 Q28.8 2.3 27.95 2.15 L27.7 2.1 26.1 2.25 26.05 2.3 3.55 13.6 3.5 13.6 Q2.6 14 2.2 14.95 1.85 16 2.2 17 L2.2 16.95 Q2.6 17.95 3.55 18.45 L26.05 29.7 26.05 29.75 27.8 29.95 Q28.75 29.75 29.4 28.95 30 28.15 30 27.3"/>
    <path stroke="none" fill="#EE2747" d="M27.6 4.1 L27.8 4.25 27.9 4.45 28 4.75 28 27.25 27.75 27.8 27.35 28 27.1 28 26.95 27.9 4.45 16.65 4.5 16.7 4.1 16.35 4.1 16.25 4.05 15.75 4.25 15.5 4.45 15.4 26.95 4.1 27.1 4 27.2 4 27.6 4.1"/>
  </g>
</svg>