<svg width="32" height="32" xmlns="http://www.w3.org/2000/svg" xmlns:xlink="http://www.w3.org/1999/xlink">
  <defs/>
  <g>
    <path stroke="none" fill="#9696A3" d="M30 26 L30 6 Q30 2 26 2 L6 2 Q2 2 2 6 L2 26 Q2 30 6 30 L26 30 Q30 30 30 26 M6 0 L26 0 Q32 0 32 6 L32 26 Q32 32 26 32 L6 32 Q0 32 0 26 L0 6 Q0 0 6 0"/>
    <path stroke="none" fill="#FFFFFF" d="M28 6 Q28 4 26 4 L6 4 Q4 4 4 6 L4 26 Q4 28 6 28 L26 28 Q28 28 28 26 L28 6 M30 26 Q30 30 26 30 L6 30 Q2 30 2 26 L2 6 Q2 2 6 2 L26 2 Q30 2 30 6 L30 26"/>
    <path stroke="none" fill="#DADCE7" d="M28 6 L28 26 Q28 28 26 28 L6 28 Q4 28 4 26 L4 6 Q4 4 6 4 L26 4 Q28 4 28 6"/>
    <path stroke="none" fill="#871023" d="M24 10 L24 22 Q24 24 22 24 L10 24 Q8 24 8 22 L8 10 Q8 8 10 8 L22 8 Q24 8 24 10 M10 10 L10 22 22 22 22 10 10 10"/>
    <path stroke="none" fill="#FF627B" d="M10 10 L22 10 22 22 10 22 10 10"/>
  </g>
</svg>