<svg width="16" height="96" xmlns="http://www.w3.org/2000/svg" xmlns:xlink="http://www.w3.org/1999/xlink">
  <defs/>
  <g>
    <path stroke="none" fill="#CD0B2A" d="M2.3 13.7 Q0 11.35 0 8 0 4.65 2.3 2.35 4.65 0 8 0 11.35 0 13.65 2.35 16 4.65 16 8 16 11.35 13.65 13.7 L12 15 12 81.05 13.65 82.35 Q16 84.75 16 88 16 91.35 13.65 93.7 11.35 96 8 96 4.65 96 2.3 93.7 0 91.35 0 88 0 84.75 2.3 82.35 L4 81.05 4 15 2.3 13.7 M3.75 12.25 Q4.75 13.25 6 13.7 L6 82.35 Q4.75 82.75 3.75 83.75 2 85.55 2 88 2 90.5 3.75 92.25 5.5 94 8 94 10.5 94 12.25 92.25 14 90.5 14 88 14 85.55 12.25 83.75 11.25 82.75 10 82.35 L10 13.7 Q11.25 13.25 12.25 12.25 14 10.5 14 8 14 5.5 12.25 3.75 10.5 2 8 2 5.5 2 3.75 3.75 2 5.5 2 8 2 10.5 3.75 12.25"/>
    <path stroke="none" fill="#FF627B" d="M3.75 12.25 Q2 10.5 2 8 2 5.5 3.75 3.75 5.5 2 8 2 10.5 2 12.25 3.75 14 5.5 14 8 14 10.5 12.25 12.25 11.25 13.25 10 13.7 L10 82.35 Q11.25 82.75 12.25 83.75 14 85.55 14 88 14 90.5 12.25 92.25 10.5 94 8 94 5.5 94 3.75 92.25 2 90.5 2 88 2 85.55 3.75 83.75 4.75 82.75 6 82.35 L6 13.7 Q4.75 13.25 3.75 12.25"/>
  </g>
</svg>