<svg width="24" height="24" xmlns="http://www.w3.org/2000/svg" xmlns:xlink="http://www.w3.org/1999/xlink">
  <defs/>
  <g>
    <path stroke="none" fill="#CD0B2A" d="M13.35 21.25 L13.35 21.15 21.8 4.25 21.85 4.2 21.95 3.35 21.9 3.05 21.45 2.4 21.4 2.35 Q20.95 2 20.4 2 L3.55 2 2.55 2.4 2.6 2.35 Q2.15 2.7 2.05 3.2 1.95 3.75 2.2 4.25 L10.6 21.15 10.55 21.1 Q10.9 21.7 11.55 21.95 L12.55 21.95 12.6 21.95 12.65 21.9 13.35 21.25 M23.6 5.15 L15.15 22.05 Q14.6 23.25 13.3 23.8 12 24.25 10.75 23.8 9.45 23.25 8.8 22.05 L0.4 5.15 Q-0.15 4.05 0.1 2.8 0.35 1.6 1.35 0.8 2.4 0 3.55 0 L20.4 0 Q21.65 0 22.65 0.8 23.7 1.6 23.85 2.8 24.2 4.05 23.6 5.15"/>
    <path stroke="none" fill="#FF627B" d="M13.35 21.25 L12.65 21.9 12.6 21.95 12.55 21.95 11.55 21.95 Q10.9 21.7 10.55 21.1 L10.6 21.15 2.2 4.25 Q1.95 3.75 2.05 3.2 2.15 2.7 2.6 2.35 L2.55 2.4 3.55 2 20.4 2 Q20.95 2 21.4 2.35 L21.45 2.4 21.9 3.05 21.95 3.35 21.85 4.2 21.8 4.25 13.35 21.15 13.35 21.25 M12 19.4 L19.7 4 4.35 4 12 19.4"/>
    <path stroke="none" fill="#EE2747" d="M12 19.4 L4.35 4 19.7 4 12 19.4"/>
  </g>
</svg>