<svg width="32" height="32" xmlns="http://www.w3.org/2000/svg" xmlns:xlink="http://www.w3.org/1999/xlink">
  <defs/>
  <g>
    <path stroke="none" fill="#CD0B2A" d="M29.65 3.5 L29.65 3.45 29.15 2.8 28.95 2.6 28.7 2.4 Q28.2 2 27.25 2 L26.5 2.15 16.75 6.1 Q16 6.4 15.25 6.1 L5.5 2.15 4.4 2.05 Q3.6 2.15 2.95 2.7 L2.75 2.85 2.7 2.9 Q2.2 3.4 2 4.3 L2.05 4.25 2 4.65 2 4.9 Q2 5.5 2.3 6 L2.45 6.25 13.3 27.95 13.35 28.1 13.6 28.55 14.4 29.5 14.45 29.5 15.25 29.85 15.45 29.9 16.6 29.95 17.35 29.6 17.35 29.65 17.85 29.2 17.9 29.15 18.3 28.65 18.25 28.65 18.35 28.45 29.55 6.2 29.7 6 30 4.9 30 4.8 29.9 4.35 29.9 4.3 29.8 3.9 29.65 3.5 M6.25 0.3 L16 4.25 25.75 0.3 27.25 0 Q29.1 0 30.1 1 L30.55 1.4 31.45 2.6 31.75 3.45 31.85 3.85 32 4.8 32 4.9 Q32 6.1 31.35 7.1 L20.15 29.35 20.05 29.55 19.3 30.6 18.45 31.3 17 31.9 14.9 31.85 Q14 31.65 13.25 31.1 L11.85 29.55 11.5 28.85 0.65 7.15 Q0 6.15 0 4.9 L0 4.65 0.05 3.9 Q0.4 2.35 1.35 1.45 L1.7 1.15 Q2.8 0.25 4.1 0.05 L6.25 0.3"/>
    <path stroke="none" fill="#FF627B" d="M29.65 3.5 L29.8 3.9 29.9 4.3 29.9 4.35 30 4.8 30 4.9 29.7 6 29.55 6.2 18.35 28.45 18.25 28.65 18.3 28.65 17.9 29.15 17.85 29.2 17.35 29.65 17.35 29.6 16.6 29.95 15.45 29.9 15.25 29.85 14.45 29.5 14.4 29.5 13.6 28.55 13.35 28.1 13.3 27.95 2.45 6.25 2.3 6 Q2 5.5 2 4.9 L2 4.65 2.05 4.25 2 4.3 Q2.2 3.4 2.7 2.9 L2.75 2.85 2.95 2.7 Q3.6 2.15 4.4 2.05 L5.5 2.15 15.25 6.1 Q16 6.4 16.75 6.1 L26.5 2.15 27.25 2 Q28.2 2 28.7 2.4 L28.95 2.6 29.15 2.8 29.65 3.45 29.65 3.5 M16.2 28 L16.3 27.9 16.4 27.85 16.25 28.05 16.35 28.1 16.4 27.95 16.45 27.85 16.45 27.75 16.5 27.7 16.55 27.55 27.75 5.3 27.85 5.2 28 4.95 28 4.85 27.95 4.8 27.95 4.75 27.9 4.5 27.85 4.4 27.9 4.4 27.85 4.35 27.8 4.25 27.65 4.15 27.6 4.1 27.45 4 27.25 4 17.5 7.95 Q16 8.55 14.5 7.95 L4.75 4 Q4.45 4.05 4.2 4.25 L4.3 4.15 4 3.8 4.05 4.4 4.05 4.5 4 4.7 4 4.75 4 4.9 4.25 5.3 4.25 5.35 15.1 27.05 15.2 27.3 15.25 27.4 15.3 27.5 15.6 27.9 15.65 27.9 16 28 16.15 28 16.2 28"/>
    <path stroke="none" fill="#EE2747" d="M16.2 28 L16.15 28 16 28 15.65 27.9 15.6 27.9 15.3 27.5 15.25 27.4 15.2 27.3 15.1 27.05 4.25 5.35 4.25 5.3 4 4.9 4 4.75 4 4.7 4.05 4.5 4.05 4.4 4 3.8 4.3 4.15 4.2 4.25 Q4.45 4.05 4.75 4 L14.5 7.95 Q16 8.55 17.5 7.95 L27.25 4 27.45 4 27.6 4.1 27.65 4.15 27.8 4.25 27.85 4.35 27.9 4.4 27.85 4.4 27.9 4.5 27.95 4.75 27.95 4.8 28 4.85 28 4.95 27.85 5.2 27.75 5.3 16.55 27.55 16.5 27.7 16.45 27.75 16.45 27.85 16.4 27.95 16.35 28.1 16.25 28.05 16.4 27.85 16.3 27.9 16.2 28"/>
  </g>
</svg>