<svg width="32" height="32" xmlns="http://www.w3.org/2000/svg" xmlns:xlink="http://www.w3.org/1999/xlink">
  <defs/>
  <g>
    <path stroke="none" fill="#EE2747" d="M27.9 27.6 L27.75 27.8 27.55 27.9 27.25 28 4.75 28 4.2 27.75 4 27.35 4 27.1 4.1 26.95 15.35 4.45 15.3 4.5 15.65 4.1 15.75 4.1 16.25 4.05 16.5 4.25 16.6 4.45 27.9 26.95 28 27.1 28 27.2 27.9 27.6"/>
    <path stroke="none" fill="#FF627B" d="M27.9 27.6 L28 27.2 28 27.1 27.9 26.95 16.6 4.45 16.5 4.25 16.25 4.05 15.75 4.1 15.65 4.1 15.3 4.5 15.35 4.45 4.1 26.95 4 27.1 4 27.35 4.2 27.75 4.75 28 27.25 28 27.55 27.9 27.75 27.8 27.9 27.6 M4.7 30 Q3.85 30 3.05 29.4 2.25 28.75 2.05 27.8 1.85 26.9 2.25 26.05 L2.3 26.05 13.55 3.55 Q14.05 2.6 15.05 2.2 L15 2.2 Q16 1.85 17.05 2.2 18 2.6 18.4 3.5 L18.4 3.55 29.7 26.05 29.75 26.1 Q30.15 26.85 29.9 27.7 L29.85 27.95 Q29.7 28.8 28.95 29.35 L28.95 29.4 Q28.2 30 27.25 30 L4.7 30"/>
    <path stroke="none" fill="#CD0B2A" d="M4.7 30 L27.25 30 Q28.2 30 28.95 29.4 L28.95 29.35 Q29.7 28.8 29.85 27.95 L29.9 27.7 Q30.15 26.85 29.75 26.1 L29.7 26.05 18.4 3.55 18.4 3.5 Q18 2.6 17.05 2.2 16 1.85 15 2.2 L15.05 2.2 Q14.05 2.6 13.55 3.55 L2.3 26.05 2.25 26.05 Q1.85 26.9 2.05 27.8 2.25 28.75 3.05 29.4 3.85 30 4.7 30 M31.5 25.15 Q32.3 26.6 31.85 28.25 31.6 29.85 30.2 30.95 28.9 32 27.25 32 L4.7 32 Q3.15 32 1.75 30.95 0.45 29.85 0.1 28.25 -0.25 26.6 0.5 25.15 L11.75 2.65 Q12.6 1.05 14.3 0.35 16 -0.3 17.75 0.35 19.45 1.05 20.2 2.65 L31.5 25.15"/>
  </g>
</svg>