<svg width="24" height="24" xmlns="http://www.w3.org/2000/svg" xmlns:xlink="http://www.w3.org/1999/xlink">
  <defs/>
  <g>
    <path stroke="none" fill="#CD0B2A" d="M2.9 10.65 L2.85 10.7 2.15 11.35 2.15 11.4 2.1 11.5 Q1.95 12 2.1 12.5 L2.9 13.35 19.75 21.8 20.8 21.95 Q21.3 21.85 21.65 21.4 L21.6 21.45 22 20.45 22 3.55 Q22 3.05 21.65 2.6 L21.6 2.55 20.95 2.15 20.65 2.1 19.8 2.15 19.75 2.2 2.9 10.65 M18.85 0.4 Q19.95 -0.2 21.2 0.15 22.4 0.3 23.2 1.35 24 2.35 24 3.55 L24 20.45 Q24 21.6 23.2 22.65 22.4 23.65 21.2 23.9 L18.85 23.6 2 15.15 Q0.8 14.55 0.25 13.25 -0.2 12 0.25 10.7 0.8 9.4 2 8.85 L18.85 0.4"/>
    <path stroke="none" fill="#FF627B" d="M2.9 10.65 L19.75 2.2 19.8 2.15 20.65 2.1 20.95 2.15 21.6 2.55 21.65 2.6 Q22 3.05 22 3.55 L22 20.45 21.6 21.45 21.65 21.4 Q21.3 21.85 20.8 21.95 L19.75 21.8 2.9 13.35 2.1 12.5 Q1.95 12 2.1 11.5 L2.15 11.4 2.15 11.35 2.85 10.7 2.9 10.65 M20 19.7 L20 4.3 4.7 12 20 19.7"/>
    <path stroke="none" fill="#EE2747" d="M20 19.7 L4.7 12 20 4.3 20 19.7"/>
  </g>
</svg>