<svg width="64" height="64" xmlns="http://www.w3.org/2000/svg" xmlns:xlink="http://www.w3.org/1999/xlink">
  <defs/>
  <g>
    <path stroke="none" fill="#CD0B2A" d="M61.95 27.2 L61.95 26.8 62 26 62 6 61.95 5.05 Q61.5 2 58 2 L28 2 27.2 2.05 26.8 2.05 26 2 6 2 Q2.5 2 2.1 5.05 L2 6 2 26 2.05 26.8 2.05 27.2 2 28 2 58 Q2 62 6 62 L26 62 26.8 61.95 27.2 61.95 28 62 58 62 Q62 62 62 58 L62 28 61.95 27.2 M0 26.75 L0 6 Q0 0 6 0 L26 0 27 0.05 28 0 58 0 Q64 0 64 6 L64 26.75 63.95 27 64 27.4 64 58.25 Q63.85 64 58 64 L28 64 27 63.95 26 64 6 64 Q0.15 64 0 58.25 L0 27.4 0.05 27 0 26.75"/>
    <path stroke="none" fill="#FF627B" d="M61.95 27.2 L62 28 62 58 Q62 62 58 62 L28 62 27.2 61.95 26.8 61.95 26 62 6 62 Q2 62 2 58 L2 28 2.05 27.2 2.05 26.8 2 26 2 6 2.1 5.05 Q2.5 2 6 2 L26 2 26.8 2.05 27.2 2.05 28 2 58 2 Q61.5 2 61.95 5.05 L62 6 62 26 61.95 26.8 61.95 27.2 M4 58 Q4 60 6 60 L26 60 26.6 60 26.6 59.95 27.45 59.95 27.45 60 28 60 58 60 Q60 60 60 58 L60 32 4 32 4 58"/>
    <path stroke="none" fill="#FF0000" d="M64 26.75 L64 27.4 63.95 27 64 26.75 M0 27.4 L0 26.75 0.05 27 0 27.4"/>
    <path stroke="none" fill="#EE2747" d="M4 58 L4 32 60 32 60 58 Q60 60 58 60 L28 60 27.45 60 27.45 59.95 26.6 59.95 26.6 60 26 60 6 60 Q4 60 4 58"/>
  </g>
</svg>