<svg width="64" height="64" xmlns="http://www.w3.org/2000/svg" xmlns:xlink="http://www.w3.org/1999/xlink">
  <defs>
    <linearGradient gradientUnits="userSpaceOnUse" x1="-819.2" x2="819.2" spreadMethod="pad" gradientTransform="matrix(0 0.03411865234375 -0.03173828125 0 -15.45 34)" id="gradient0">
      <stop offset="0" stop-color="#FF627B"/>
      <stop offset="1" stop-color="#EE2747"/>
    </linearGradient>
  </defs>
  <g>
    <path stroke="none" fill="#FF627B" d="M12.2 12.2 L12.15 12.25 12.15 12.2 Q5.3 19.1 4.25 28.5 L4.25 28.55 4.05 30.95 4.05 31.05 4.1 31.8 4.1 31.9 Q4.7 41.35 12.1 48.3 20.35 56 32 56 43.6 56 51.85 48.3 59.3 41.35 59.95 31.9 L59.95 31.8 60 31.6 Q59.7 31 60 30.4 L59.85 28.5 Q58.75 19.1 51.75 12.25 43.5 4 32 4 20.4 4 12.2 12.2 M2.05 31.05 L2.05 30.95 2.25 28.25 Q3.35 18.2 10.7 10.8 L10.75 10.75 Q19.6 2 32 2 44.35 2 53.15 10.8 60.65 18.2 61.8 28.25 L62 30.95 62 31.05 61.95 32 Q61.25 42.25 53.2 49.75 44.4 58 32 58 19.55 58 10.7 49.75 2.75 42.25 2.1 32 L2.05 31.05"/>
    <path stroke="none" fill="url(#gradient0)" d="M12.2 12.2 Q20.4 4 32 4 43.5 4 51.75 12.25 58.75 19.1 59.85 28.5 L60 30.4 Q59.7 31 60 31.6 L59.95 31.8 59.95 31.9 Q59.3 41.35 51.85 48.3 43.6 56 32 56 20.35 56 12.1 48.3 4.7 41.35 4.1 31.9 L4.1 31.8 4.05 31.05 4.05 30.95 4.25 28.55 4.25 28.5 Q5.3 19.1 12.15 12.2 L12.15 12.25 12.2 12.2"/>
    <path stroke="none" fill="#CD0B2A" d="M0.05 31 L0.25 28.05 Q1.45 17.3 9.3 9.35 18.75 0 32 0 45.2 0 54.55 9.35 62.55 17.3 63.8 28.05 L64 31 64 31.65 63.95 32 Q63.25 43.1 54.55 51.2 45.2 60 32 60 18.75 60 9.3 51.2 0.75 43.1 0.1 32 L0.05 31 M2.05 31.05 L2.1 32 Q2.75 42.25 10.7 49.75 19.55 58 32 58 44.4 58 53.2 49.75 61.25 42.25 61.95 32 L62 31.05 62 30.95 61.8 28.25 Q60.65 18.2 53.15 10.8 44.35 2 32 2 19.6 2 10.75 10.75 L10.7 10.8 Q3.35 18.2 2.25 28.25 L2.05 30.95 2.05 31.05"/>
    <path stroke="none" fill="#871023" d="M64 31.65 L64 32 Q64 45.25 54.55 54.6 45.2 64 32 64 18.75 64 9.3 54.6 0 45.25 0 32 L0.05 31 0.1 32 Q0.75 43.1 9.3 51.2 18.75 60 32 60 45.2 60 54.55 51.2 63.25 43.1 63.95 32 L64 31.65"/>
  </g>
</svg>