<svg width="32" height="32" xmlns="http://www.w3.org/2000/svg" xmlns:xlink="http://www.w3.org/1999/xlink">
  <defs/>
  <g>
    <path stroke="none" fill="#9696A3" d="M30 26 L30 6 Q30 2 26 2 L6 2 Q2 2 2 6 L2 26 Q2 30 6 30 L26 30 Q30 30 30 26 M6 0 L26 0 Q32 0 32 6 L32 26 Q32 32 26 32 L6 32 Q0 32 0 26 L0 6 Q0 0 6 0"/>
    <path stroke="none" fill="#FFFFFF" d="M30 26 Q30 30 26 30 L6 30 Q2 30 2 26 L2 6 Q2 2 6 2 L26 2 Q30 2 30 6 L30 26 M28 6 Q28 4 26 4 L6 4 Q4 4 4 6 L4 26 Q4 28 6 28 L26 28 Q28 28 28 26 L28 6"/>
    <path stroke="none" fill="#DADCE7" d="M28 6 L28 26 Q28 28 26 28 L6 28 Q4 28 4 26 L4 6 Q4 4 6 4 L26 4 Q28 4 28 6"/>
    <path stroke="none" fill="#871023" d="M13.85 8.15 L16 10.3 18.15 8.15 18.2 8.15 Q19.35 7 21 7 L21.05 7 Q22.65 7 23.85 8.15 L23.85 8.2 Q25 9.35 25 11 L25 11.05 Q25 12.65 23.85 13.85 L21.7 16 23.85 18.15 23.85 18.2 Q25 19.35 25 21 L25 21.05 Q25 22.65 23.85 23.85 22.65 25 21.05 25 L21 25 Q19.35 25 18.2 23.85 L18.15 23.85 16 21.7 13.85 23.85 Q12.65 25 11.05 25 L11 25 Q9.35 25 8.2 23.85 L8.15 23.85 Q7 22.65 7 21.05 L7 21 Q7 19.35 8.15 18.2 L8.15 18.15 10.3 16 8.15 13.85 Q7 12.65 7 11.05 L7 11 Q7 9.35 8.15 8.2 L8.2 8.15 Q9.35 7 11 7 L11.05 7 Q12.65 7 13.85 8.15 M12.45 22.45 L16 18.85 19.6 22.45 Q20.15 23 21 23 21.85 23 22.45 22.45 23 21.85 23 21 23 20.15 22.45 19.6 L18.85 16 22.45 12.45 Q23 11.85 23 11 23 10.15 22.45 9.6 21.85 9 21 9 20.15 9 19.6 9.6 L16 13.15 12.45 9.6 Q11.85 9 11 9 10.15 9 9.6 9.6 9 10.15 9 11 9 11.85 9.6 12.45 L13.15 16 9.6 19.6 Q9 20.15 9 21 9 21.85 9.6 22.45 10.15 23 11 23 11.85 23 12.45 22.45"/>
    <path stroke="none" fill="#FF627B" d="M12.45 22.45 Q11.85 23 11 23 10.15 23 9.6 22.45 9 21.85 9 21 9 20.15 9.6 19.6 L13.15 16 9.6 12.45 Q9 11.85 9 11 9 10.15 9.6 9.6 10.15 9 11 9 11.85 9 12.45 9.6 L16 13.15 19.6 9.6 Q20.15 9 21 9 21.85 9 22.45 9.6 23 10.15 23 11 23 11.85 22.45 12.45 L18.85 16 22.45 19.6 Q23 20.15 23 21 23 21.85 22.45 22.45 21.85 23 21 23 20.15 23 19.6 22.45 L16 18.85 12.45 22.45"/>
  </g>
</svg>