<svg width="16" height="32" xmlns="http://www.w3.org/2000/svg" xmlns:xlink="http://www.w3.org/1999/xlink">
  <defs/>
  <g>
    <path stroke="none" fill="#CD0B2A" d="M10 32 L10 21.6 Q11.25 21.2 12.25 20.2 13.7 18.7 13.95 16.8 L14 16.2 14 15.9 Q13.95 13.55 12.25 11.8 11.25 10.8 10 10.4 L10 0 12 0 12 9.1 13.65 10.4 14 10.8 Q16 13.05 16 16 L16 16.05 15.85 17.55 Q15.5 19.7 14 21.4 L13.65 21.75 12 23.05 12 32 10 32 M6 0 L6 10.4 Q4.75 10.8 3.75 11.8 2 13.6 2 16 L2 16.05 2.1 17.2 Q2.45 18.9 3.75 20.2 4.75 21.2 6 21.6 L6 32 4 32 4 23.05 2.3 21.75 Q0.55 19.95 0.15 17.6 L0 16.05 0 16 Q0 12.8 2.3 10.4 L4 9.1 4 0 6 0"/>
    <path stroke="none" fill="#FF627B" d="M6 0 L10 0 10 10.4 Q11.25 10.8 12.25 11.8 13.95 13.55 14 15.9 L14 16.2 13.95 16.8 Q13.7 18.7 12.25 20.2 11.25 21.2 10 21.6 L10 32 6 32 6 21.6 Q4.75 21.2 3.75 20.2 2.45 18.9 2.1 17.2 L2 16.05 2 16 Q2 13.6 3.75 11.8 4.75 10.8 6 10.4 L6 0"/>
  </g>
</svg>