<svg width="32" height="16" xmlns="http://www.w3.org/2000/svg" xmlns:xlink="http://www.w3.org/1999/xlink">
  <defs/>
  <g>
    <path stroke="none" fill="#CD0B2A" d="M32 6 L21.6 6 Q21.2 4.75 20.2 3.75 18.7 2.3 16.8 2.05 L16.2 2 15.9 2 Q13.55 2.05 11.8 3.75 10.8 4.75 10.4 6 L0 6 0 4 9.1 4 Q9.6 3.1 10.4 2.35 L10.8 2 Q13.05 0 16 0 L16.05 0 17.55 0.15 Q19.7 0.5 21.4 2 L21.75 2.35 23.05 4 32 4 32 6 M0 10 L10.4 10 Q10.8 11.25 11.8 12.25 13.6 14 16 14 L16.05 14 17.2 13.9 Q18.9 13.55 20.2 12.25 21.2 11.25 21.6 10 L32 10 32 12 23.05 12 21.75 13.7 Q19.95 15.45 17.6 15.85 L16.05 16 16 16 Q12.8 16 10.4 13.7 L9.1 12 0 12 0 10"/>
    <path stroke="none" fill="#FF627B" d="M0 10 L0 6 10.4 6 Q10.8 4.75 11.8 3.75 13.55 2.05 15.9 2 L16.2 2 16.8 2.05 Q18.7 2.3 20.2 3.75 21.2 4.75 21.6 6 L32 6 32 10 21.6 10 Q21.2 11.25 20.2 12.25 18.9 13.55 17.2 13.9 L16.05 14 16 14 Q13.6 14 11.8 12.25 10.8 11.25 10.4 10 L0 10"/>
  </g>
</svg>