<svg width="16" height="16" xmlns="http://www.w3.org/2000/svg" xmlns:xlink="http://www.w3.org/1999/xlink">
  <defs/>
  <g>
    <path stroke="none" fill="#CD0B2A" d="M0 6 L0 4 1.05 4 Q1.55 3.1 2.35 2.35 L2.75 2 Q4.95 0.05 7.8 0 L8.2 0 9.5 0.15 Q11.65 0.5 13.35 2 L13.7 2.35 15 4 16 4 16 6 13.55 6 Q13.15 4.75 12.15 3.75 10.65 2.3 8.75 2.05 L8.15 2 7.85 2 Q5.5 2.05 3.75 3.75 2.75 4.75 2.35 6 L0 6 M16 10 L16 12 15 12 13.7 13.7 Q11.9 15.45 9.55 15.85 L8.2 16 7.75 16 Q4.7 15.95 2.35 13.7 L1.05 12 0 12 0 10 2.35 10 Q2.75 11.25 3.75 12.25 5.55 14 7.95 14 L8 14 9.15 13.9 Q10.85 13.55 12.15 12.25 13.15 11.25 13.55 10 L16 10"/>
    <path stroke="none" fill="#FF627B" d="M16 10 L13.55 10 Q13.15 11.25 12.15 12.25 10.85 13.55 9.15 13.9 L8 14 7.95 14 Q5.55 14 3.75 12.25 2.75 11.25 2.35 10 L0 10 0 6 2.35 6 Q2.75 4.75 3.75 3.75 5.5 2.05 7.85 2 L8.15 2 8.75 2.05 Q10.65 2.3 12.15 3.75 13.15 4.75 13.55 6 L16 6 16 10"/>
  </g>
</svg>