<svg width="24" height="24" xmlns="http://www.w3.org/2000/svg" xmlns:xlink="http://www.w3.org/1999/xlink">
  <defs/>
  <g>
    <path stroke="none" fill="#DEA312" d="M12.55 2.1 Q12 1.95 11.55 2.1 10.95 2.35 10.65 2.9 L2.2 19.75 Q1.95 20.25 2.05 20.8 2.15 21.3 2.6 21.65 L2.55 21.6 3.55 22 20.45 22 21.4 21.65 21.45 21.6 21.95 20.9 21.95 20.75 Q22.1 20.25 21.85 19.8 L21.8 19.75 13.35 2.9 13.35 2.85 12.65 2.15 12.6 2.15 12.55 2.1 M23.6 18.85 Q24.2 19.95 23.9 21.2 23.7 22.4 22.65 23.2 21.65 24 20.45 24 L3.55 24 Q2.4 24 1.35 23.2 0.35 22.4 0.1 21.2 -0.15 19.95 0.4 18.85 L8.85 2 Q9.45 0.8 10.75 0.25 12 -0.2 13.3 0.25 14.6 0.8 15.15 2 L23.6 18.85"/>
    <path stroke="none" fill="#FFEA9C" d="M12.55 2.1 L12.6 2.15 12.65 2.15 13.35 2.85 13.35 2.9 21.8 19.75 21.85 19.8 Q22.1 20.25 21.95 20.75 L21.95 20.9 21.45 21.6 21.4 21.65 20.45 22 3.55 22 2.55 21.6 2.6 21.65 Q2.15 21.3 2.05 20.8 1.95 20.25 2.2 19.75 L10.65 2.9 Q10.95 2.35 11.55 2.1 12 1.95 12.55 2.1 M4.35 20 L19.65 20 12 4.7 4.35 20"/>
    <path stroke="none" fill="#FFCC00" d="M4.35 20 L12 4.7 19.65 20 4.35 20"/>
  </g>
</svg>