<svg width="64" height="64" xmlns="http://www.w3.org/2000/svg" xmlns:xlink="http://www.w3.org/1999/xlink">
  <defs>
    <linearGradient gradientUnits="userSpaceOnUse" x1="-819.2" x2="819.2" spreadMethod="pad" gradientTransform="matrix(0 0.03411865234375 -0.03173828125 0 -95.6 36)" id="gradient0">
      <stop offset="0" stop-color="#FFEA9C"/>
      <stop offset="1" stop-color="#FFCC00"/>
    </linearGradient>
  </defs>
  <g>
    <path stroke="none" fill="#DEA312" d="M27.9 62 L58 62 Q62 62 62 58 L62 19.85 61.95 19.2 61.95 18.95 62 18.95 62 6 61.95 5.05 Q61.5 2 58 2 L27.9 2 27.2 2.05 26.8 2.05 26.1 2 6 2 Q2.5 2 2.1 5.05 L2 6 2 18.95 2.05 18.95 2.05 19.2 2 19.85 2 58 Q2 62 6 62 L26.1 62 26.8 61.95 27.2 61.95 27.9 62 M64 18.95 L63.95 19 64 19.4 64 58.25 Q63.85 64 58 64 L6 64 Q0.15 64 0 58.25 L0 19.4 0.05 19 0.05 18.95 0 18.95 0 6 Q0 0 6 0 L58 0 Q64 0 64 6 L64 18.95"/>
    <path stroke="none" fill="#FFEA9C" d="M27.9 62 L27.2 61.95 26.8 61.95 26.1 62 6 62 Q2 62 2 58 L2 19.85 2.05 19.2 2.05 18.95 2 18.95 2 6 2.1 5.05 Q2.5 2 6 2 L26.1 2 26.8 2.05 27.2 2.05 27.9 2 58 2 Q61.5 2 61.95 5.05 L62 6 62 18.95 61.95 18.95 61.95 19.2 62 19.85 62 58 Q62 62 58 62 L27.9 62 M27.45 4.05 L27.2 4.05 26.8 4.05 26.55 4.05 26.1 4 6 4 Q4.35 4 4.1 5.3 L4.05 5.5 4 6 4 18.95 4.05 18.95 4.05 19.2 4.05 19.45 4 19.9 4 58 Q4 60 6 60 L26.55 60 26.8 59.95 27.2 59.95 27.45 60 28 60 58 60 Q60 60 60 58 L60 19.45 59.95 19.2 59.95 18.95 60 18.95 60 6 59.95 5.3 60 5.35 Q59.65 4 58 4 L27.95 4 27.45 4.05"/>
    <path stroke="none" fill="#FF0000" d="M64 19.4 L63.95 19 64 18.95 64 19.4 M0 18.95 L0.05 18.95 0.05 19 0 19.4 0 18.95"/>
    <path stroke="none" fill="url(#gradient0)" d="M27.45 4.05 L27.95 4 58 4 Q59.65 4 60 5.35 L59.95 5.3 60 6 60 18.95 59.95 18.95 59.95 19.2 60 19.45 60 58 Q60 60 58 60 L28 60 27.45 60 27.2 59.95 26.8 59.95 26.55 60 6 60 Q4 60 4 58 L4 19.9 4.05 19.45 4.05 19.2 4.05 18.95 4 18.95 4 6 4.05 5.5 4.1 5.3 Q4.35 4 6 4 L26.1 4 26.55 4.05 26.8 4.05 27.2 4.05 27.45 4.05"/>
  </g>
</svg>