<svg width="64" height="64" xmlns="http://www.w3.org/2000/svg" xmlns:xlink="http://www.w3.org/1999/xlink">
  <defs/>
  <g>
    <path stroke="none" fill="#DEA312" d="M64 32 Q64 45.25 54.65 54.6 45.25 64 32 64 18.75 64 9.35 54.6 0 45.25 0 32 0 18.7 9.35 9.35 18.75 0 32 0 45.25 0 54.65 9.35 64 18.7 64 32 M2 32 Q2 44.4 10.8 53.2 19.6 62 32 62 44.4 62 53.25 53.2 62 44.4 62 32 62 19.55 53.25 10.8 44.45 2 32 2 19.55 2 10.75 10.8 L10.8 10.8 Q2 19.55 2 32"/>
    <path stroke="none" fill="#FFEA9C" d="M2 32 Q2 19.55 10.8 10.8 L10.75 10.8 Q19.55 2 32 2 44.45 2 53.25 10.8 62 19.55 62 32 62 44.4 53.25 53.2 44.4 62 32 62 19.6 62 10.8 53.2 2 44.4 2 32 M12.2 51.75 Q20.4 60 32 60 43.6 60 51.8 51.75 60 43.6 60 32 L4 32 Q4 43.6 12.2 51.75"/>
    <path stroke="none" fill="#FFCC00" d="M12.2 51.75 Q4 43.6 4 32 L60 32 Q60 43.6 51.8 51.75 43.6 60 32 60 20.4 60 12.2 51.75"/>
  </g>
</svg>