<svg width="64" height="60" xmlns="http://www.w3.org/2000/svg" xmlns:xlink="http://www.w3.org/1999/xlink">
  <defs>
    <linearGradient gradientUnits="userSpaceOnUse" x1="-819.2" x2="819.2" spreadMethod="pad" gradientTransform="matrix(0 -0.01568603515625 0.01568603515625 0 32.25 17.5)" id="gradient0">
      <stop offset="0" stop-color="#DADCE7"/>
      <stop offset="1" stop-color="#B7B8C2"/>
    </linearGradient>
  </defs>
  <g>
    <path stroke="none" fill="url(#gradient0)" d="M0.55 25.65 Q0 24.8 0 23.75 -0.05 22.3 0.85 21.15 1.8 20 3.3 19.65 L19.6 15.8 28.15 2.05 Q29 0.75 30.5 0.25 32 -0.25 33.55 0.25 35 0.75 35.8 2.1 L44.3 15.8 60.65 19.65 Q62.1 20 63.1 21.15 64 22.3 64 23.75 64 24.8 63.5 25.7 L63.1 25.15 Q62.1 24 60.65 23.65 L44.3 19.8 35.8 6.1 Q35 4.75 33.55 4.25 32 3.75 30.5 4.25 29 4.75 28.15 6.05 L19.6 19.8 3.3 23.65 Q1.8 24 0.85 25.15 L0.55 25.65"/>
    <path stroke="none" fill="#DADCE7" d="M0.55 25.65 L0.85 25.15 Q1.8 24 3.3 23.65 L19.6 19.8 28.15 6.05 Q29 4.75 30.5 4.25 32 3.75 33.55 4.25 35 4.75 35.8 6.1 L44.3 19.8 60.65 23.65 Q62.1 24 63.1 25.15 L63.5 25.7 63 26.3 52 39.05 53.3 55.55 Q53.4 56.4 53.1 57.15 L52.5 58.25 Q51.55 59.4 50.05 59.85 L47.15 59.65 32 53.45 16.85 59.65 13.85 59.85 Q12.3 59.4 11.4 58.25 L10.85 57.2 Q10.55 56.4 10.65 55.55 L11.9 39.05 1 26.3 0.55 25.65"/>
  </g>
</svg>