<svg width="64" height="64" xmlns="http://www.w3.org/2000/svg" xmlns:xlink="http://www.w3.org/1999/xlink">
  <defs>
    <linearGradient gradientUnits="userSpaceOnUse" x1="-819.2" x2="819.2" spreadMethod="pad" gradientTransform="matrix(0 0.03411865234375 -0.03173828125 0 -94.35 36)" id="gradient0">
      <stop offset="0" stop-color="#FFFFFF"/>
      <stop offset="1" stop-color="#DADCE7"/>
    </linearGradient>
  </defs>
  <g>
    <path stroke="none" fill="#FFFFFF" d="M2 32 Q2 19.55 10.8 10.8 L10.75 10.8 Q19.55 2 32 2 40.95 2 48 6.55 50.75 8.3 53.25 10.8 62 19.55 62 32 62 44.4 53.25 53.2 50.75 55.65 48 57.45 40.9 62 32 62 19.6 62 10.8 53.2 2 44.4 2 32 M4 32 Q4 43.55 12.25 51.8 20.45 60 32 60 41 60 48 55.05 L51.85 51.8 Q60 43.55 60 32 60 20.4 51.85 12.25 50 10.4 48 9 41 4 32 4 20.55 4 12.4 12.05 L12.2 12.25 Q4 20.4 4 32"/>
    <path stroke="none" fill="url(#gradient0)" d="M4 32 Q4 20.4 12.2 12.25 L12.4 12.05 Q20.55 4 32 4 41 4 48 9 50 10.4 51.85 12.25 60 20.4 60 32 60 43.55 51.85 51.8 L48 55.05 Q41 60 32 60 20.45 60 12.25 51.8 4 43.55 4 32"/>
    <path stroke="none" fill="#989AAF" d="M2 32 Q2 44.4 10.8 53.2 19.6 62 32 62 40.9 62 48 57.45 50.75 55.65 53.25 53.2 62 44.4 62 32 62 19.55 53.25 10.8 50.75 8.3 48 6.55 40.95 2 32 2 19.55 2 10.75 10.8 L10.8 10.8 Q2 19.55 2 32 M64 32 Q64 45.25 54.65 54.6 51.55 57.7 48 59.8 40.85 64 32 64 18.75 64 9.35 54.6 0 45.25 0 32 0 18.7 9.35 9.35 18.75 0 32 0 40.85 0 48 4.2 51.55 6.25 54.65 9.35 64 18.7 64 32"/>
  </g>
</svg>