<svg width="192" height="64" xmlns="http://www.w3.org/2000/svg" xmlns:xlink="http://www.w3.org/1999/xlink">
  <defs/>
  <g>
    <path stroke="none" fill="#FFFFFF" d="M6 4 Q4.35 4 4.1 5.3 L4.05 5.5 4 6 4 24 4.05 24.55 4.05 24.8 4.05 25.2 4.05 25.45 4 26 4 54 Q4 56 6 56 L186 56 Q188 56 188 54 L188 26 188 25.45 187.95 25.2 187.95 24.8 188 24.55 188 24 188 6 187.95 5.3 188 5.35 Q187.65 4 186 4 L6 4 M189.95 25.2 L190 26 190 54 Q190 58 186 58 L6 58 Q2 58 2 54 L2 26 2.05 25.2 2.05 24.8 2 24 2 6 2.1 5.05 Q2.5 2 6 2 L186 2 Q189.5 2 189.95 5.05 L190 6 190 24 189.95 24.8 189.95 25.2"/>
    <path stroke="none" fill="#DADCE7" d="M6 4 L186 4 Q187.65 4 188 5.35 L187.95 5.3 188 6 188 24 188 24.55 187.95 24.8 187.95 25.2 188 25.45 188 26 188 54 Q188 56 186 56 L6 56 Q4 56 4 54 L4 26 4.05 25.45 4.05 25.2 4.05 24.8 4.05 24.55 4 24 4 6 4.05 5.5 4.1 5.3 Q4.35 4 6 4 M84.7 6 L81.8 6 6 6 6 24 6 24.15 6.05 24.55 6.05 24.8 6.05 25.2 6.05 25.45 6.05 25.8 6 26 6 54 81.8 54 87.55 54 186 54 186 26 186 25.75 185.95 25.2 185.95 24.8 186 24.3 186 24 186 6 84.7 6 M183.95 25.05 L184 25.9 184 26 184 52 8 52 8 26.1 8.05 25.45 8.05 25.2 8.05 24.8 8.05 24.55 8.05 24.5 8 24 8 8 184 8 184 24 184 24.1 Q183.9 24.55 183.95 24.95 L183.95 25.05"/>
    <path stroke="none" fill="#9696A3" d="M183.95 25.05 L183.95 24.95 Q183.9 24.55 184 24.1 L184 24 184 8 8 8 8 24 8.05 24.5 8.05 24.55 8.05 24.8 8.05 25.2 8.05 25.45 8 26.1 8 52 184 52 184 26 184 25.9 183.95 25.05 M0 24.75 L0 6 Q0 0 6 0 L186 0 Q192 0 192 6 L192 24.75 191.95 25 192 25.4 192 54.25 Q191.85 60 186 60 L6 60 Q0.15 60 0 54.25 L0 25.4 0.05 25 0 24.75 M189.95 25.2 L189.95 24.8 190 24 190 6 189.95 5.05 Q189.5 2 186 2 L6 2 Q2.5 2 2.1 5.05 L2 6 2 24 2.05 24.8 2.05 25.2 2 26 2 54 Q2 58 6 58 L186 58 Q190 58 190 54 L190 26 189.95 25.2 M84.7 6 L186 6 186 24 186 24.3 185.95 24.8 185.95 25.2 186 25.75 186 26 186 54 87.55 54 81.8 54 6 54 6 26 6.05 25.8 6.05 25.45 6.05 25.2 6.05 24.8 6.05 24.55 6 24.15 6 24 6 6 81.8 6 84.7 6"/>
    <path stroke="none" fill="#FF0000" d="M192 24.75 L192 25.4 191.95 25 192 24.75 M0 25.4 L0 24.75 0.05 25 0 25.4"/>
    <path stroke="none" fill="#747487" d="M192 54.25 L192 58 Q192 64 186 64 L6 64 Q0 64 0 58 L0 54.25 Q0.15 60 6 60 L186 60 Q191.85 60 192 54.25"/>
  </g>
</svg>