<svg width="20" height="18" xmlns="http://www.w3.org/2000/svg" xmlns:xlink="http://www.w3.org/1999/xlink">
  <defs/>
  <g>
    <path stroke="none" fill="#FFFFFF" d="M2.45 10.5 Q1.95 9.85 2.05 9.05 2.1 8.2 2.75 7.7 3.4 7.2 4.25 7.3 5.05 7.35 5.55 8 L7.85 10.85 14.45 2.75 Q15 2.1 15.8 2 16.6 1.9 17.25 2.45 17.9 3 18 3.8 18.1 4.6 17.55 5.25 L9.4 15.25 8.45 15.95 7.3 15.95 6.3 15.25 2.45 10.5"/>
    <path stroke="none" fill="#666880" d="M2.45 10.5 L6.3 15.25 7.3 15.95 8.45 15.95 9.4 15.25 17.55 5.25 Q18.1 4.6 18 3.8 17.9 3 17.25 2.45 16.6 1.9 15.8 2 15 2.1 14.45 2.75 L7.85 10.85 5.55 8 Q5.05 7.35 4.25 7.3 3.4 7.2 2.75 7.7 2.1 8.2 2.05 9.05 1.95 9.85 2.45 10.5 M20 3.6 Q20.15 5.25 19.1 6.55 L10.95 16.55 10.95 16.5 Q10.2 17.45 9.05 17.85 7.85 18.2 6.7 17.85 L6.65 17.85 Q5.5 17.45 4.75 16.5 L0.9 11.75 Q-0.15 10.45 0.05 8.85 0.2 7.2 1.5 6.15 2.8 5.1 4.45 5.3 6.05 5.45 7.1 6.75 L7.85 7.7 12.9 1.5 Q13.95 0.2 15.6 0.05 L15.6 0 Q17.2 -0.15 18.5 0.9 L18.55 0.95 Q19.8 1.95 20 3.6"/>
  </g>
</svg>