<svg width="96" height="16" xmlns="http://www.w3.org/2000/svg" xmlns:xlink="http://www.w3.org/1999/xlink">
  <defs/>
  <g>
    <path stroke="none" fill="#B0B0BA" d="M13.7 13.7 Q11.35 16 8 16 4.65 16 2.35 13.7 0 11.35 0 8 0 4.65 2.35 2.35 4.65 0 8 0 11.35 0 13.7 2.35 L15 4 81.05 4 Q81.55 3.1 82.35 2.35 84.75 0 88 0 91.35 0 93.7 2.35 96 4.65 96 8 96 11.35 93.7 13.7 91.35 16 88 16 84.75 16 82.35 13.7 L81.05 12 15 12 13.7 13.7 M12.25 12.25 Q13.25 11.25 13.7 10 L82.35 10 Q82.75 11.25 83.75 12.25 85.55 14 88 14 90.5 14 92.25 12.25 94 10.5 94 8 94 5.5 92.25 3.75 90.5 2 88 2 85.55 2 83.75 3.75 82.75 4.75 82.35 6 L13.7 6 Q13.25 4.75 12.25 3.75 10.5 2 8 2 5.5 2 3.75 3.75 2 5.5 2 8 2 10.5 3.75 12.25 5.5 14 8 14 10.5 14 12.25 12.25"/>
    <path stroke="none" fill="#FFFFFF" d="M12.25 12.25 Q10.5 14 8 14 5.5 14 3.75 12.25 2 10.5 2 8 2 5.5 3.75 3.75 5.5 2 8 2 10.5 2 12.25 3.75 13.25 4.75 13.7 6 L82.35 6 Q82.75 4.75 83.75 3.75 85.55 2 88 2 90.5 2 92.25 3.75 94 5.5 94 8 94 10.5 92.25 12.25 90.5 14 88 14 85.55 14 83.75 12.25 82.75 11.25 82.35 10 L13.7 10 Q13.25 11.25 12.25 12.25"/>
  </g>
</svg>