<svg width="34" height="38" xmlns="http://www.w3.org/2000/svg" xmlns:xlink="http://www.w3.org/1999/xlink">
  <defs/>
  <g>
    <path stroke="none" fill="#000000" d="M33.8 20.6 Q33.3 22.15 32 23.2 L32.05 23.2 Q21.4 32.25 8.55 37.55 L8.5 37.55 5 37.8 5.05 37.8 Q3.35 37.4 2.15 36.15 L2.1 36.1 Q0.85 34.65 0.75 32.95 -0.7 19 0.75 5 0.85 3.25 2.1 1.95 L2.15 1.9 Q3.35 0.5 5.05 0.15 L5.1 0.15 Q6.85 -0.25 8.5 0.45 21.75 5.75 32.15 14.85 L32.05 14.8 Q33.4 15.85 33.8 17.6 34.25 19.05 33.8 20.6 M2.75 32.75 Q2.8 33.85 3.6 34.75 4.4 35.6 5.5 35.85 L7.75 35.7 Q20.35 30.5 30.75 21.65 31.55 21 31.85 20 32.15 19 31.85 18.05 31.6 17 30.8 16.35 20.7 7.45 7.75 2.3 L5.5 2.1 Q4.4 2.35 3.6 3.25 2.8 4.1 2.75 5.2 1.3 19 2.75 32.75"/>
    <path stroke="none" fill="#FFFFFF" d="M2.75 32.75 Q1.3 19 2.75 5.2 2.8 4.1 3.6 3.25 4.4 2.35 5.5 2.1 L7.75 2.3 Q20.7 7.45 30.8 16.35 31.6 17 31.85 18.05 32.15 19 31.85 20 31.55 21 30.75 21.65 20.35 30.5 7.75 35.7 L5.5 35.85 Q4.4 35.6 3.6 34.75 2.8 33.85 2.75 32.75"/>
  </g>
</svg>