<svg width="38" height="26" xmlns="http://www.w3.org/2000/svg" xmlns:xlink="http://www.w3.org/1999/xlink">
  <defs/>
  <g>
    <path stroke="none" fill="#000000" d="M20.3 0.25 Q21.3 0.6 22.05 1.45 L22.1 1.5 37.1 19.45 37.15 19.5 Q38.1 20.75 38 22.25 37.9 23.8 36.85 24.9 L36.75 24.95 Q35.55 26 34 26 L4 26 Q2.4 26 1.3 24.95 L1.25 24.9 Q0.1 23.8 0 22.25 -0.15 20.7 1 19.4 L1 19.45 15.95 1.55 Q16.6 0.6 17.85 0.2 L17.95 0.2 20.1 0.15 20.3 0.25 M17.5 2.75 L2.5 20.7 Q1.95 21.35 2 22.1 2.05 22.9 2.65 23.45 3.2 24 4 24 L34 24 Q34.8 24 35.4 23.45 35.95 22.9 36 22.1 36.05 21.35 35.55 20.7 L20.55 2.75 Q20.15 2.3 19.6 2.1 19 1.95 18.45 2.1 17.85 2.3 17.5 2.75"/>
    <path stroke="none" fill="#FFFFFF" d="M17.5 2.75 Q17.85 2.3 18.45 2.1 19 1.95 19.6 2.1 20.15 2.3 20.55 2.75 L35.55 20.7 Q36.05 21.35 36 22.1 35.95 22.9 35.4 23.45 34.8 24 34 24 L4 24 Q3.2 24 2.65 23.45 2.05 22.9 2 22.1 1.95 21.35 2.5 20.7 L17.5 2.75"/>
  </g>
</svg>