<svg width="45" height="40" xmlns="http://www.w3.org/2000/svg" xmlns:xlink="http://www.w3.org/1999/xlink">
  <defs/>
  <g>
    <path stroke="none" fill="#000000" d="M32.7 7.3 Q27.4 2 19.95 2 12.7 2 7.3 7.3 2 12.55 2 20 2 27.35 7.3 32.7 L7.3 32.75 Q12.7 38 19.95 38 21.8 38 23.1 36.8 L23.15 36.75 Q24.35 35.45 24.35 33.6 24.35 31.7 23.1 30.5 21.8 29.2 19.95 29.2 16.2 29.2 13.6 26.45 L13.55 26.45 Q10.8 23.7 10.8 20 10.8 16.25 13.5 13.55 L13.45 13.55 Q16.2 10.8 19.95 10.8 23.7 10.8 26.45 13.55 28.8 15.9 29.1 19 L27.15 19 Q25.9 19 25.1 19.75 24.2 20.45 24.1 21.4 L24.05 21.4 Q23.85 22.5 24.75 23.4 L31.15 30.2 31.1 30.2 Q31.7 30.85 32.6 31.1 L32.6 31.05 34.3 31.1 Q35.35 30.85 35.95 30.2 L42.35 23.4 42.4 23.35 Q43 22.55 43 21.55 L43 21.3 Q42.75 20.4 41.85 19.7 L41.9 19.75 Q41 19 39.9 19 L37.9 19 Q37.55 12.2 32.7 7.3 M23.1 38.8 L23.25 38.75 23.15 38.75 23.1 38.8 M25.05 15 Q22.9 12.8 19.95 12.8 17.2 12.8 15.15 14.75 L14.95 15 Q12.8 17.1 12.8 20 12.8 22.8 14.85 24.9 L15.05 25.1 Q17.05 27.2 19.95 27.2 22.6 27.2 24.5 29.05 L24.55 29.1 Q26.35 30.85 26.35 33.6 26.35 36.25 24.65 38.1 L24.45 38.3 Q22.6 40 19.95 40 11.9 40 5.9 34.2 L5.65 33.85 Q0 28 0 20 0 11.7 5.9 5.9 11.9 0 19.95 0 28.25 0 34.15 5.9 38.85 10.65 39.75 17 L39.9 17 Q41.5 17 42.85 17.95 L43.1 18.15 43.3 18.3 43.35 18.35 Q44.6 19.4 44.95 20.8 L45 21.3 45 21.55 Q45 23.2 44 24.55 L43.8 24.8 43.75 24.85 37.4 31.6 Q36.45 32.65 34.8 33.05 33.55 33.35 32.2 33.05 L32.1 33.05 Q30.6 32.6 29.65 31.55 L29.4 31.25 23.3 24.8 Q21.65 23.1 22.1 21.05 L22.2 20.75 Q22.45 19.35 23.75 18.3 24.85 17.2 26.5 17.05 26 15.95 25.05 15"/>
    <path stroke="none" fill="#FFFFFF" d="M32.7 7.3 Q37.55 12.2 37.9 19 L39.9 19 Q41 19 41.9 19.75 L41.85 19.7 Q42.75 20.4 43 21.3 L43 21.55 Q43 22.55 42.4 23.35 L42.35 23.4 35.95 30.2 Q35.35 30.85 34.3 31.1 L32.6 31.05 32.6 31.1 Q31.7 30.85 31.1 30.2 L31.15 30.2 24.75 23.4 Q23.85 22.5 24.05 21.4 L24.1 21.4 Q24.2 20.45 25.1 19.75 25.9 19 27.15 19 L29.1 19 Q28.8 15.9 26.45 13.55 23.7 10.8 19.95 10.8 16.2 10.8 13.45 13.55 L13.5 13.55 Q10.8 16.25 10.8 20 10.8 23.7 13.55 26.45 L13.6 26.45 Q16.2 29.2 19.95 29.2 21.8 29.2 23.1 30.5 24.35 31.7 24.35 33.6 24.35 35.45 23.15 36.75 L23.1 36.8 Q21.8 38 19.95 38 12.7 38 7.3 32.75 L7.3 32.7 Q2 27.35 2 20 2 12.55 7.3 7.3 12.7 2 19.95 2 27.4 2 32.7 7.3"/>
  </g>
</svg>