<svg width="192" height="64" xmlns="http://www.w3.org/2000/svg" xmlns:xlink="http://www.w3.org/1999/xlink">
  <defs/>
  <g>
    <path stroke="none" fill="#FFFFFF" d="M6 2 Q2 2 2 6 L2 58 Q2 61.9 5.85 62 L186.2 62 Q190 61.9 190 58 L190 6 Q190 2 186 2 L6 2 M188 7.9 L188 58.15 Q187.95 60 186 60 L6 60 Q4.05 60 4 58.15 L4 7.9 Q4.05 6 6 6 L186 6 Q187.95 6 188 7.9 M6 0 L186 0 Q192 0 192 6 L192 58 Q192 64 186 64 L6 64 Q0 64 0 58 L0 6 Q0 0 6 0"/>
    <path stroke="none" fill="#DADCE7" d="M4 7.9 L4 6 Q4 4 6 4 L186 4 Q188 4 188 6 L188 7.9 Q187.95 6 186 6 L6 6 Q4.05 6 4 7.9"/>
    <path stroke="none" fill="#989AAF" d="M4 7.9 L4 58.15 Q4.05 60 6 60 L186 60 Q187.95 60 188 58.15 L188 7.9 188 6 Q188 4 186 4 L6 4 Q4 4 4 6 L4 7.9 M6 2 L186 2 Q190 2 190 6 L190 58 Q190 61.9 186.2 62 L5.85 62 Q2 61.9 2 58 L2 6 Q2 2 6 2"/>
  </g>
</svg>