<svg width="32" height="32" xmlns="http://www.w3.org/2000/svg" xmlns:xlink="http://www.w3.org/1999/xlink">
  <defs/>
  <g>
    <path stroke="none" fill="#36BDF7" d="M29.65 28.5 L29.65 28.55 29.15 29.2 28.95 29.4 28.7 29.6 Q28.2 30 27.25 30 L26.5 29.85 16.75 25.9 Q16 25.6 15.25 25.9 L5.5 29.85 4.4 29.95 Q3.6 29.85 2.95 29.3 L2.75 29.15 2.7 29.1 Q2.2 28.6 2 27.7 L2.05 27.75 2 27.35 2 27.1 Q2 26.5 2.3 26 L2.45 25.75 13.3 4.05 13.35 3.9 13.6 3.45 14.4 2.5 14.45 2.5 Q14.8 2.2 15.25 2.15 L15.45 2.1 16.6 2.05 Q17 2.15 17.35 2.4 L17.35 2.35 17.85 2.8 17.9 2.85 18.3 3.35 18.25 3.35 18.35 3.55 29.55 25.8 29.7 26 30 27.1 30 27.2 29.9 27.65 29.9 27.7 29.8 28.1 29.65 28.5 M16.15 4 L16 4 15.65 4.1 15.6 4.1 15.3 4.5 15.25 4.6 15.2 4.7 15.1 4.95 4.25 26.65 4.25 26.7 4 27.1 4 27.25 4 27.3 4.05 27.5 4.05 27.6 4 28.2 4.3 27.85 4.2 27.75 4.75 28 14.5 24.05 Q16 23.45 17.5 24.05 L27.25 28 27.45 28 27.6 27.9 27.65 27.85 27.8 27.75 27.85 27.65 27.9 27.6 27.85 27.6 27.9 27.5 27.95 27.25 27.95 27.2 28 27.15 28 27.05 27.85 26.8 27.75 26.7 16.55 4.45 16.5 4.3 16.45 4.25 16.45 4.15 16.4 4.05 16.35 3.9 16.25 3.95 16.4 4.15 16.3 4.1 16.25 4.05 16.25 4 16.15 4"/>
    <path stroke="none" fill="#167DA8" d="M29.65 28.5 L29.8 28.1 29.9 27.7 29.9 27.65 30 27.2 30 27.1 29.7 26 29.55 25.8 18.35 3.55 18.25 3.35 18.3 3.35 17.9 2.85 17.85 2.8 17.35 2.35 17.35 2.4 Q17 2.15 16.6 2.05 L15.45 2.1 15.25 2.15 Q14.8 2.2 14.45 2.5 L14.4 2.5 13.6 3.45 13.35 3.9 13.3 4.05 2.45 25.75 2.3 26 Q2 26.5 2 27.1 L2 27.35 2.05 27.75 2 27.7 Q2.2 28.6 2.7 29.1 L2.75 29.15 2.95 29.3 Q3.6 29.85 4.4 29.95 L5.5 29.85 15.25 25.9 Q16 25.6 16.75 25.9 L26.5 29.85 27.25 30 Q28.2 30 28.7 29.6 L28.95 29.4 29.15 29.2 29.65 28.55 29.65 28.5 M6.25 31.7 L4.1 31.95 Q2.8 31.75 1.7 30.85 L1.35 30.55 Q0.4 29.65 0.05 28.1 L0 27.35 0 27.1 Q0 25.85 0.65 24.85 L11.5 3.15 11.85 2.45 Q12.45 1.45 13.25 0.9 14 0.35 14.9 0.15 L17 0.1 18.45 0.7 19.3 1.4 20.05 2.45 20.15 2.65 31.35 24.9 Q32 25.9 32 27.1 L32 27.2 31.85 28.15 31.75 28.55 31.45 29.4 30.55 30.6 30.1 31 Q29.1 32 27.25 32 L25.75 31.7 16 27.75 6.25 31.7"/>
    <path stroke="none" fill="#1C9FD7" d="M16.15 4 L16.25 4 16.25 4.05 16.3 4.1 16.4 4.15 16.25 3.95 16.35 3.9 16.4 4.05 16.45 4.15 16.45 4.25 16.5 4.3 16.55 4.45 27.75 26.7 27.85 26.8 28 27.05 28 27.15 27.95 27.2 27.95 27.25 27.9 27.5 27.85 27.6 27.9 27.6 27.85 27.65 27.8 27.75 27.65 27.85 27.6 27.9 27.45 28 27.25 28 17.5 24.05 Q16 23.45 14.5 24.05 L4.75 28 4.2 27.75 4.3 27.85 4 28.2 4.05 27.6 4.05 27.5 4 27.3 4 27.25 4 27.1 4.25 26.7 4.25 26.65 15.1 4.95 15.2 4.7 15.25 4.6 15.3 4.5 15.6 4.1 15.65 4.1 16 4 16.15 4"/>
  </g>
</svg>