<svg width="64" height="64" xmlns="http://www.w3.org/2000/svg" xmlns:xlink="http://www.w3.org/1999/xlink">
  <defs>
    <linearGradient gradientUnits="userSpaceOnUse" x1="-819.2" x2="819.2" spreadMethod="pad" gradientTransform="matrix(0 0.03411865234375 -0.03173828125 0 176 30)" id="gradient0">
      <stop offset="0" stop-color="#35BAF3"/>
      <stop offset="1" stop-color="#1EA7E1"/>
    </linearGradient>
  </defs>
  <g>
    <path stroke="none" fill="#36BDF7" d="M62 6 L62 54 Q62 58 58 58 L6 58 Q2 58 2 54 L2 6 2.1 5.05 Q2.5 2 6 2 L58 2 Q61.5 2 61.95 5.05 L62 6 M6 4 Q4.35 4 4.1 5.3 L4.05 5.5 4 6 4 54 Q4 56 6 56 L27.45 56 28 56 58 56 Q60 56 60 54 L60 24.55 60 24 60 6 59.95 5.3 60 5.35 Q59.65 4 58 4 L6 4"/>
    <path stroke="none" fill="url(#gradient0)" d="M6 4 L58 4 Q59.65 4 60 5.35 L59.95 5.3 60 6 60 24 60 24.55 60 54 Q60 56 58 56 L28 56 27.45 56 6 56 Q4 56 4 54 L4 6 4.05 5.5 4.1 5.3 Q4.35 4 6 4"/>
    <path stroke="none" fill="#167DA8" d="M0 54.25 L0 6 Q0 0 6 0 L58 0 Q64 0 64 6 L64 54.25 Q63.85 60 58 60 L6 60 Q0.15 60 0 54.25 M62 6 L61.95 5.05 Q61.5 2 58 2 L6 2 Q2.5 2 2.1 5.05 L2 6 2 54 Q2 58 6 58 L58 58 Q62 58 62 54 L62 6"/>
    <path stroke="none" fill="#146587" d="M64 54.25 L64 58 Q64 64 58 64 L6 64 Q0 64 0 58 L0 54.25 Q0.15 60 6 60 L58 60 Q63.85 60 64 54.25"/>
  </g>
</svg>