<svg width="64" height="64" xmlns="http://www.w3.org/2000/svg" xmlns:xlink="http://www.w3.org/1999/xlink">
  <defs/>
  <g>
    <path stroke="none" fill="#167DA8" d="M0.05 31 L0.25 28.05 Q1.45 17.3 9.3 9.35 18.75 0 32 0 45.2 0 54.55 9.35 62.55 17.3 63.8 28.05 L64 31 64 31.35 63.95 32 Q63.25 43.1 54.55 51.2 45.2 60 32 60 18.75 60 9.3 51.2 0.75 43.1 0.1 32 L0.05 31 M2.05 31.05 L2.1 32 Q2.75 42.25 10.7 49.75 19.55 58 32 58 44.4 58 53.2 49.75 61.25 42.25 61.95 32 L62 31.05 62 30.95 61.8 28.25 Q60.65 18.2 53.15 10.8 44.35 2 32 2 19.6 2 10.75 10.75 L10.7 10.8 Q3.35 18.2 2.25 28.25 L2.05 30.95 2.05 31.05"/>
    <path stroke="none" fill="#36BDF7" d="M2.05 31.05 L2.05 30.95 2.25 28.25 Q3.35 18.2 10.7 10.8 L10.75 10.75 Q19.6 2 32 2 44.35 2 53.15 10.8 60.65 18.2 61.8 28.25 L62 30.95 62 31.05 61.95 32 Q61.25 42.25 53.2 49.75 44.4 58 32 58 19.55 58 10.7 49.75 2.75 42.25 2.1 32 L2.05 31.05 M32 56 Q43.5 56 51.65 48.45 L51.85 48.25 Q59.2 41.4 59.95 32 L4.1 32 Q4.8 41.25 11.8 48.05 L12.05 48.25 Q20.35 56 32 56"/>
    <path stroke="none" fill="#146587" d="M64 31.35 L64 32 Q64 45.25 54.55 54.6 45.2 64 32 64 18.75 64 9.3 54.6 0 45.25 0 32 L0.05 31 0.1 32 Q0.75 43.1 9.3 51.2 18.75 60 32 60 45.2 60 54.55 51.2 63.25 43.1 63.95 32 L64 31.35"/>
    <path stroke="none" fill="#1C9FD7" d="M32 56 Q20.35 56 12.05 48.25 L11.8 48.05 Q4.8 41.25 4.1 32 L59.95 32 Q59.2 41.4 51.85 48.25 L51.65 48.45 Q43.5 56 32 56"/>
  </g>
</svg>