<svg width="64" height="64" xmlns="http://www.w3.org/2000/svg" xmlns:xlink="http://www.w3.org/1999/xlink">
  <defs/>
  <g>
    <path stroke="none" fill="#9696A3" d="M64 32 Q64 45.25 54.65 54.6 45.25 64 32 64 18.75 64 9.35 54.6 0 45.25 0 32 0 18.7 9.35 9.35 18.75 0 32 0 45.25 0 54.65 9.35 64 18.7 64 32 M2 32 Q2 44.4 10.8 53.2 19.6 62 32 62 44.4 62 53.25 53.2 62 44.4 62 32 62 19.55 53.25 10.8 44.45 2 32 2 19.55 2 10.75 10.8 L10.8 10.8 Q2 19.55 2 32"/>
    <path stroke="none" fill="#FFFFFF" d="M2 32 Q2 19.55 10.8 10.8 L10.75 10.8 Q19.55 2 32 2 44.45 2 53.25 10.8 62 19.55 62 32 62 44.4 53.25 53.2 44.4 62 32 62 19.6 62 10.8 53.2 2 44.4 2 32 M4 32 Q4 43.55 12.25 51.8 20.45 60 32 60 43.55 60 51.85 51.8 60 43.55 60 32 60 20.4 51.85 12.25 43.6 4 32 4 20.55 4 12.4 12.05 L12.2 12.25 Q4 20.4 4 32"/>
    <path stroke="none" fill="#DADCE7" d="M4 32 Q4 20.4 12.2 12.25 L12.4 12.05 Q20.55 4 32 4 43.6 4 51.85 12.25 60 20.4 60 32 60 43.55 51.85 51.8 43.55 60 32 60 20.45 60 12.25 51.8 4 43.55 4 32 M13.8 13.5 L13.7 13.6 13.6 13.7 Q6 21.25 6 32 6 42.7 13.7 50.4 21.3 58 32 58 42.7 58 50.45 50.4 58 42.7 58 32 58 21.25 50.45 13.7 42.75 6 32 6 21.35 6 13.8 13.5 M49.05 49 Q41.9 56 32 56 22.1 56 15.1 48.95 8 41.9 8 32 8 22.05 15 15.1 L15.05 15.1 15.1 15 15.2 14.9 15.25 14.9 Q22.2 8 32 8 41.95 8 49 15.1 56 22.05 56 32 56 41.9 49.05 49 L49.05 48.95 49 49 49.05 49"/>
    <path stroke="none" fill="#36BDF7" d="M49.05 49 L49 49 49.05 48.95 49.05 49 Q56 41.9 56 32 56 22.05 49 15.1 41.95 8 32 8 22.2 8 15.25 14.9 L15.2 14.9 15.1 15 15.05 15.1 15 15.1 Q8 22.05 8 32 8 41.9 15.1 48.95 22.1 56 32 56 41.9 56 49.05 49 M13.8 13.5 Q21.35 6 32 6 42.75 6 50.45 13.7 58 21.25 58 32 58 42.7 50.45 50.4 42.7 58 32 58 21.3 58 13.7 50.4 6 42.7 6 32 6 21.25 13.6 13.7 L13.7 13.6 13.8 13.5"/>
  </g>
</svg>