<svg width="32" height="32" xmlns="http://www.w3.org/2000/svg" xmlns:xlink="http://www.w3.org/1999/xlink">
  <defs/>
  <g>
    <path stroke="none" fill="#167DA8" d="M6 0 L26 0 Q32 0 32 6 L32 26 Q32 32 26 32 L6 32 Q0 32 0 26 L0 6 Q0 0 6 0 M30 26 L30 6 Q30 2 26 2 L6 2 Q2 2 2 6 L2 26 Q2 30 6 30 L26 30 Q30 30 30 26"/>
    <path stroke="none" fill="#36BDF7" d="M30 26 Q30 30 26 30 L6 30 Q2 30 2 26 L2 6 Q2 2 6 2 L26 2 Q30 2 30 6 L30 26 M28 6 Q28 4 26 4 L6 4 Q4 4 4 6 L4 26 Q4 28 6 28 L26 28 Q28 28 28 26 L28 6"/>
    <path stroke="none" fill="#1C9FD7" d="M28 6 L28 26 Q28 28 26 28 L6 28 Q4 28 4 26 L4 6 Q4 4 6 4 L26 4 Q28 4 28 6"/>
    <path stroke="none" fill="#36BDF7" d="M8.45 17.5 Q7.95 16.85 8.05 16.05 8.1 15.2 8.75 14.7 9.4 14.2 10.25 14.3 11.05 14.35 11.55 15 L13.85 17.85 20.45 9.75 Q21 9.1 21.8 9 22.6 8.9 23.25 9.45 23.9 10 24 10.8 24.1 11.6 23.55 12.25 L15.4 22.25 Q15 22.75 14.45 22.95 L13.3 22.95 Q12.7 22.75 12.3 22.25 L8.45 17.5"/>
    <path stroke="none" fill="#FFFFFF" d="M8.45 17.5 L12.3 22.25 Q12.7 22.75 13.3 22.95 L14.45 22.95 Q15 22.75 15.4 22.25 L23.55 12.25 Q24.1 11.6 24 10.8 23.9 10 23.25 9.45 22.6 8.9 21.8 9 21 9.1 20.45 9.75 L13.85 17.85 11.55 15 Q11.05 14.35 10.25 14.3 9.4 14.2 8.75 14.7 8.1 15.2 8.05 16.05 7.95 16.85 8.45 17.5 M26 10.6 Q26.15 12.25 25.1 13.55 L16.95 23.55 16.95 23.5 Q16.2 24.45 15.05 24.85 13.85 25.2 12.7 24.85 L12.65 24.85 Q11.5 24.45 10.75 23.5 L6.9 18.75 Q5.85 17.45 6.05 15.85 6.2 14.2 7.5 13.15 8.8 12.1 10.45 12.3 12.05 12.45 13.1 13.75 L13.85 14.7 18.9 8.5 Q19.95 7.2 21.6 7.05 L21.6 7 Q23.2 6.85 24.5 7.9 L24.55 7.95 Q25.8 8.95 26 10.6"/>
  </g>
</svg>