<svg width="64" height="60" xmlns="http://www.w3.org/2000/svg" xmlns:xlink="http://www.w3.org/1999/xlink">
  <defs/>
  <g>
    <path stroke="none" fill="#DADCE7" d="M19.6 15.8 L28.15 2.05 Q29 0.75 30.5 0.25 32 -0.25 33.55 0.25 35 0.75 35.8 2.1 L44.3 15.8 60.65 19.65 Q62.1 20 63.1 21.15 64 22.3 64 23.75 64 25.2 63 26.3 L52 39.05 53.3 55.55 Q53.45 57 52.5 58.25 51.55 59.4 50.05 59.85 L47.15 59.65 32 53.45 16.85 59.65 13.85 59.85 Q12.3 59.4 11.4 58.25 10.5 57 10.65 55.55 L11.9 39.05 1 26.3 Q0 25.2 0 23.75 -0.05 22.3 0.85 21.15 1.8 20 3.3 19.65 L19.6 15.8 M34.1 3.15 Q33.65 2.4 32.9 2.15 L32.95 2.15 Q32 1.85 31.15 2.15 30.3 2.45 29.85 3.15 L21.3 16.85 Q20.85 17.55 20.05 17.75 L3.75 21.6 Q2.9 21.8 2.4 22.45 L2.45 22.4 Q2 22.95 2 23.7 L2 23.75 Q2 24.45 2.5 24.95 L2.55 25 13.45 37.75 Q13.95 38.4 13.9 39.2 L12.65 55.7 12.65 55.75 Q12.6 56.45 13.05 57.1 13.5 57.65 14.3 57.9 L14.4 57.95 16.15 57.8 31.25 51.6 Q32 51.3 32.75 51.6 L47.9 57.8 49.5 57.95 50.95 57 51.3 55.75 51.3 55.7 50 39.2 Q49.95 38.4 50.5 37.75 L61.5 25 61.55 24.95 62 23.75 Q62 23 61.55 22.4 L60.2 21.6 43.85 17.75 Q43.05 17.55 42.6 16.85 L34.1 3.15 M60 23.65 L60 23.7 59.95 23.7 48.95 36.45 Q47.85 37.7 48 39.35 L49.3 55.75 49.3 55.8 48.95 56 48.65 55.95 48.6 55.95 33.5 49.75 33.55 49.75 Q32 49.1 30.5 49.75 L15.5 55.9 15.4 55.95 14.85 55.95 14.65 55.85 15.9 39.35 Q16 37.7 14.95 36.45 L4.05 23.7 4 23.65 4.2 23.55 20.5 19.7 20.55 19.7 Q22.1 19.3 23 17.95 L23 17.9 31.5 4.25 Q31.6 4.1 31.8 4.05 L31.75 4.05 32.25 4.05 32.35 4.15 32.55 4.45 40.9 17.9 40.9 17.95 Q41.8 19.3 43.4 19.7 L59.75 23.55 60 23.65 60.05 23.6 60.05 23.7 60 23.65"/>
    <path stroke="none" fill="#FFFFFF" d="M60 23.65 L60.05 23.7 60.05 23.6 60 23.65 59.75 23.55 43.4 19.7 Q41.8 19.3 40.9 17.95 L40.9 17.9 32.55 4.45 32.35 4.15 32.25 4.05 31.75 4.05 31.8 4.05 Q31.6 4.1 31.5 4.25 L23 17.9 23 17.95 Q22.1 19.3 20.55 19.7 L20.5 19.7 4.2 23.55 4 23.65 4.05 23.7 14.95 36.45 Q16 37.7 15.9 39.35 L14.65 55.85 14.85 55.95 15.4 55.95 15.5 55.9 30.5 49.75 Q32 49.1 33.55 49.75 L33.5 49.75 48.6 55.95 48.65 55.95 48.95 56 49.3 55.8 49.3 55.75 48 39.35 Q47.85 37.7 48.95 36.45 L59.95 23.7 60 23.7 60 23.65 M34.1 3.15 L42.6 16.85 Q43.05 17.55 43.85 17.75 L60.2 21.6 61.55 22.4 Q62 23 62 23.75 L61.55 24.95 61.5 25 50.5 37.75 Q49.95 38.4 50 39.2 L51.3 55.7 51.3 55.75 50.95 57 49.5 57.95 47.9 57.8 32.75 51.6 Q32 51.3 31.25 51.6 L16.15 57.8 14.4 57.95 14.3 57.9 Q13.5 57.65 13.05 57.1 12.6 56.45 12.65 55.75 L12.65 55.7 13.9 39.2 Q13.95 38.4 13.45 37.75 L2.55 25 2.5 24.95 Q2 24.45 2 23.75 L2 23.7 Q2 22.95 2.45 22.4 L2.4 22.45 Q2.9 21.8 3.75 21.6 L20.05 17.75 Q20.85 17.55 21.3 16.85 L29.85 3.15 Q30.3 2.45 31.15 2.15 32 1.85 32.95 2.15 L32.9 2.15 Q33.65 2.4 34.1 3.15"/>
  </g>
</svg>