<svg width="192" height="64" xmlns="http://www.w3.org/2000/svg" xmlns:xlink="http://www.w3.org/1999/xlink">
  <defs/>
  <g>
    <path stroke="none" fill="#029357" d="M0 58.25 L0 5.95 Q0.05 0 6 0 L186 0 Q192 0 192 5.95 L192 58.25 Q191.85 64 186 64 L6 64 Q0.15 64 0 58.25 M186.5 2.05 L6 2 5.9 2 5.4 2.05 Q2 2.3 2 5.95 L2 58 Q2 62 6 62 L186 62 Q190 62 190 58 L190 5.95 Q190 2.25 186.5 2.05"/>
    <path stroke="none" fill="#2FD792" d="M186.5 2.05 Q190 2.25 190 5.95 L190 58 Q190 62 186 62 L6 62 Q2 62 2 58 L2 5.95 Q2 2.3 5.4 2.05 L5.9 2 6 2 186.5 2.05 M4 58 Q4 60 6 60 L186 60 Q188 60 188 58 L188 31.95 4 31.95 4 58"/>
    <path stroke="none" fill="#16BB77" d="M4 58 L4 31.95 188 31.95 188 58 Q188 60 186 60 L6 60 Q4 60 4 58"/>
  </g>
</svg>