<svg width="192" height="64" xmlns="http://www.w3.org/2000/svg" xmlns:xlink="http://www.w3.org/1999/xlink">
  <defs>
    <linearGradient gradientUnits="userSpaceOnUse" x1="-819.2" x2="819.2" spreadMethod="pad" gradientTransform="matrix(0 0.03411865234375 -0.03173828125 0 -93.1 36)" id="gradient0">
      <stop offset="0" stop-color="#2FD792"/>
      <stop offset="1" stop-color="#16BB77"/>
    </linearGradient>
  </defs>
  <g>
    <path stroke="none" fill="#029357" d="M186.5 2.05 L6 2 5.9 2 5.4 2.05 Q2 2.3 2 5.95 L2 58 Q2 62 6 62 L186 62 Q190 62 190 58 L190 5.95 Q190 2.25 186.5 2.05 M0 58.25 L0 5.95 Q0.05 0 6 0 L186 0 Q192 0 192 5.95 L192 58.25 Q191.85 64 186 64 L6 64 Q0.15 64 0 58.25"/>
    <path stroke="none" fill="#2FD792" d="M186.5 2.05 Q190 2.25 190 5.95 L190 58 Q190 62 186 62 L6 62 Q2 62 2 58 L2 5.95 Q2 2.3 5.4 2.05 L5.9 2 6 2 186.5 2.05 M186.4 4.05 L6.1 4 5.6 4.05 5.55 4.05 Q4 4.2 4 5.95 L4 58 Q4 60 6 60 L186 60 Q188 60 188 58 L188 5.95 Q188 4.2 186.4 4.05"/>
    <path stroke="none" fill="url(#gradient0)" d="M186.4 4.05 Q188 4.2 188 5.95 L188 58 Q188 60 186 60 L6 60 Q4 60 4 58 L4 5.95 Q4 4.2 5.55 4.05 L5.6 4.05 6.1 4 186.4 4.05"/>
  </g>
</svg>