<svg width="16" height="16" xmlns="http://www.w3.org/2000/svg" xmlns:xlink="http://www.w3.org/1999/xlink">
  <defs/>
  <g>
    <path stroke="none" fill="#FFFFFF" d="M3.7 3.75 Q2 5.5 2 8 2 10.45 3.75 12.2 L3.95 12.45 Q5.65 14 8 14 10.45 14 12.2 12.25 L12.25 12.2 Q14 10.45 14 8 14 5.65 12.45 3.95 L12.2 3.75 Q10.45 2 8 2 5.5 2 3.75 3.7 L3.7 3.75 M2.3 2.3 Q4.65 0 8 0 11.3 0 13.6 2.3 L13.65 2.3 Q16 4.65 16 8 16 11.3 13.65 13.6 L13.6 13.65 Q11.3 16 8 16 4.65 16 2.3 13.65 L2.3 13.6 Q0 11.3 0 8 0 4.65 2.3 2.3"/>
    <path stroke="none" fill="#2FD792" d="M3.7 3.75 L3.75 3.7 Q5.5 2 8 2 10.45 2 12.2 3.75 L12.45 3.95 Q14 5.65 14 8 14 10.45 12.25 12.2 L12.2 12.25 Q10.45 14 8 14 5.65 14 3.95 12.45 L3.75 12.2 Q2 10.45 2 8 2 5.5 3.7 3.75"/>
  </g>
</svg>