<svg width="24" height="24" xmlns="http://www.w3.org/2000/svg" xmlns:xlink="http://www.w3.org/1999/xlink">
  <defs/>
  <g>
    <path stroke="none" fill="#167DA8" d="M23.8 19.3 L23.95 20.95 Q23.8 21.9 23.15 22.75 L22.9 23 21.1 23.95 20.5 24 20.35 24 Q19.4 24 18.65 23.5 L2.35 15.4 1.85 15.1 0.7 14.05 Q0.25 13.5 0.1 12.85 -0.05 12.05 0.1 11.25 0.25 10.65 0.55 10.15 L1.05 9.55 1.85 8.95 2 8.9 18.7 0.5 Q19.45 0 20.35 0 L20.4 0 21.1 0.1 21.4 0.2 22.05 0.4 Q22.5 0.6 22.95 1.1 L23.25 1.45 Q24 2.2 24 3.55 L23.8 4.7 20.8 12 23.8 19.3 M20.35 2 L19.8 2.2 19.6 2.3 2.9 10.7 2.7 10.8 2.5 11 2.3 11.1 2.25 11.2 2.3 11.2 2.1 11.65 2.1 12.5 2.25 12.8 2.4 12.95 2.9 13.4 3.25 13.6 19.55 21.7 19.75 21.85 20.35 22 20.5 22 20.8 22 21.45 21.65 21.5 21.6 21.65 21.45 22 20.65 22 20.6 21.95 20 18.95 12.75 Q18.65 12 18.95 11.25 L21.95 4.05 21.95 3.95 22 3.55 21.85 2.9 21.55 2.55 21.5 2.45 21.25 2.25 21.15 2.2 20.8 2.1 20.5 2 20.4 2 20.35 2"/>
    <path stroke="none" fill="#36BDF7" d="M20.35 2 L20.4 2 20.5 2 20.8 2.1 21.15 2.2 21.25 2.25 21.5 2.45 21.55 2.55 21.85 2.9 22 3.55 21.95 3.95 21.95 4.05 18.95 11.25 Q18.65 12 18.95 12.75 L21.95 20 22 20.6 22 20.65 21.65 21.45 21.5 21.6 21.45 21.65 20.8 22 20.5 22 20.35 22 19.75 21.85 19.55 21.7 3.25 13.6 2.9 13.4 2.4 12.95 2.25 12.8 2.1 12.5 2.1 11.65 2.3 11.2 2.25 11.2 2.3 11.1 2.5 11 2.7 10.8 2.9 10.7 19.6 2.3 19.8 2.2 20.35 2 M4.65 12.05 L19.55 19.45 17.1 13.5 17.1 13.55 Q16.45 12 17.1 10.5 L19.55 4.55 4.65 12.05"/>
    <path stroke="none" fill="#1C9FD7" d="M4.65 12.05 L19.55 4.55 17.1 10.5 Q16.45 12 17.1 13.55 L17.1 13.5 19.55 19.45 4.65 12.05"/>
  </g>
</svg>