<svg width="64" height="64" xmlns="http://www.w3.org/2000/svg" xmlns:xlink="http://www.w3.org/1999/xlink">
  <defs/>
  <g>
    <path stroke="none" fill="#36BDF7" d="M2 32 Q2 19.55 10.8 10.8 L10.75 10.8 Q19.55 2 32 2 44.45 2 53.25 10.8 62 19.55 62 32 62 44.4 53.25 53.2 44.4 62 32 62 19.6 62 10.8 53.2 2 44.4 2 32 M4 32 Q4 43.55 12.25 51.8 20.45 60 32 60 43.55 60 51.85 51.8 60 43.55 60 32 60 20.4 51.85 12.25 43.6 4 32 4 20.55 4 12.4 12.05 L12.2 12.25 Q4 20.4 4 32"/>
    <path stroke="none" fill="#1C9FD7" d="M4 32 Q4 20.4 12.2 12.25 L12.4 12.05 Q20.55 4 32 4 43.6 4 51.85 12.25 60 20.4 60 32 60 43.55 51.85 51.8 43.55 60 32 60 20.45 60 12.25 51.8 4 43.55 4 32"/>
    <path stroke="none" fill="#167DA8" d="M64 32 Q64 45.25 54.65 54.6 45.25 64 32 64 18.75 64 9.35 54.6 0 45.25 0 32 0 18.7 9.35 9.35 18.75 0 32 0 45.25 0 54.65 9.35 64 18.7 64 32 M2 32 Q2 44.4 10.8 53.2 19.6 62 32 62 44.4 62 53.25 53.2 62 44.4 62 32 62 19.55 53.25 10.8 44.45 2 32 2 19.55 2 10.75 10.8 L10.8 10.8 Q2 19.55 2 32"/>
  </g>
</svg>