<svg width="64" height="64" xmlns="http://www.w3.org/2000/svg" xmlns:xlink="http://www.w3.org/1999/xlink">
  <defs/>
  <g>
    <path stroke="none" fill="#FFFFFF" d="M62 6 L62 58 Q62 62 58 62 L6 62 Q2 62 2 58 L2 6 2.1 5.05 Q2.5 2 6 2 L58 2 Q61.5 2 61.95 5.05 L62 6 M6 4 Q4.35 4 4.1 5.3 L4.05 5.5 4 6 4 58 Q4 60 6 60 L27.45 60 28 60 58 60 Q60 60 60 58 L60 6 59.95 5.3 60 5.35 Q59.65 4 58 4 L6 4"/>
    <path stroke="none" fill="#DADCE7" d="M6 4 L58 4 Q59.65 4 60 5.35 L59.95 5.3 60 6 60 58 Q60 60 58 60 L28 60 27.45 60 6 60 Q4 60 4 58 L4 6 4.05 5.5 4.1 5.3 Q4.35 4 6 4 M6 6 L6 58 27.45 58 28 58 58 58 58 6 6 6 M28 56 L27.45 56 8 56 8 8 56 8 56 56 28 56"/>
    <path stroke="none" fill="#9696A3" d="M0 58.25 L0 6 Q0 0 6 0 L58 0 Q64 0 64 6 L64 58.25 Q63.85 64 58 64 L6 64 Q0.15 64 0 58.25 M62 6 L61.95 5.05 Q61.5 2 58 2 L6 2 Q2.5 2 2.1 5.05 L2 6 2 58 Q2 62 6 62 L58 62 Q62 62 62 58 L62 6"/>
    <path stroke="none" fill="#36BDF7" d="M6 6 L58 6 58 58 28 58 27.45 58 6 58 6 6 M28 56 L56 56 56 8 8 8 8 56 27.45 56 28 56"/>
  </g>
</svg>