<svg width="24" height="32" xmlns="http://www.w3.org/2000/svg" xmlns:xlink="http://www.w3.org/1999/xlink">
  <defs/>
  <g>
    <path stroke="none" fill="#167DA8" d="M2 12 L2 28 Q2 28.7 2.4 29.25 L2.65 29.45 3.7 30 4 30 20 30 20.35 30 21.4 29.5 21.5 29.4 Q22 28.8 22 28 L22 12 Q22 11.2 21.45 10.65 L21.2 10.35 13.45 2.6 13.5 2.6 Q12.85 2 12.05 2 L12 2 Q11.2 2 10.65 2.6 L10.35 2.8 2.8 10.35 2.6 10.65 Q2 11.2 2 12 M1.15 9.15 L9.15 1.15 9.2 1.15 Q10.35 0 12 0 L12.05 0 Q13.65 0 14.85 1.15 L22.85 9.15 22.85 9.2 Q24 10.35 24 12 L24 28 Q24 29.65 22.85 30.85 21.9 31.75 20.65 31.95 L20 32 4 32 3.35 31.95 Q2.1 31.75 1.2 30.85 L1.15 30.85 Q0 29.65 0 28 L0 12 Q0 10.35 1.15 9.2 L1.15 9.15"/>
    <path stroke="none" fill="#36BDF7" d="M2 12 Q2 11.2 2.6 10.65 L2.8 10.35 10.35 2.8 10.65 2.6 Q11.2 2 12 2 L12.05 2 Q12.85 2 13.5 2.6 L13.45 2.6 21.2 10.35 21.45 10.65 Q22 11.2 22 12 L22 28 Q22 28.8 21.5 29.4 L21.4 29.5 20.35 30 20 30 4 30 3.7 30 2.65 29.45 2.4 29.25 Q2 28.7 2 28 L2 12 M4.25 11.8 L4 12.05 4 28 20 28 20 12.05 19.75 11.75 12.05 4.05 11.8 4.25 4.25 11.8"/>
    <path stroke="none" fill="#1C9FD7" d="M4.25 11.8 L11.8 4.25 12.05 4.05 19.75 11.75 20 12.05 20 28 4 28 4 12.05 4.25 11.8"/>
  </g>
</svg>