<svg width="32" height="32" xmlns="http://www.w3.org/2000/svg" xmlns:xlink="http://www.w3.org/1999/xlink">
  <defs/>
  <g>
    <path stroke="none" fill="#FFEA9C" d="M2 27.3 L2 4.75 Q2 3.8 2.6 3.05 L2.65 3.05 Q3.2 2.3 4.05 2.15 L4.3 2.1 5.9 2.25 5.95 2.3 28.5 13.6 28.55 13.6 Q29.45 14 29.85 14.95 30.2 16 29.85 17 L29.85 16.95 Q29.45 17.95 28.5 18.45 L5.95 29.7 5.95 29.75 4.2 29.95 Q3.25 29.75 2.6 28.95 2 28.15 2 27.3 M4.4 4.1 L4.2 4.25 4.1 4.45 4 4.75 4 27.25 4.25 27.8 4.65 28 4.9 28 5.05 27.9 27.6 16.65 27.55 16.7 27.95 16.35 27.95 16.25 28 15.75 27.8 15.5 27.6 15.4 5.05 4.1 4.9 4 4.8 4 4.4 4.1"/>
    <path stroke="none" fill="#FFCC00" d="M4.4 4.1 L4.8 4 4.9 4 5.05 4.1 27.6 15.4 27.8 15.5 28 15.75 27.95 16.25 27.95 16.35 27.55 16.7 27.6 16.65 5.05 27.9 4.9 28 4.65 28 4.25 27.8 4 27.25 4 4.75 4.1 4.45 4.2 4.25 4.4 4.1"/>
    <path stroke="none" fill="#DEA312" d="M6.85 0.5 L29.4 11.8 Q31 12.55 31.7 14.25 32.35 16 31.7 17.7 31 19.4 29.4 20.25 L6.85 31.5 Q5.4 32.25 3.75 31.9 2.15 31.55 1.05 30.25 0 28.85 0 27.3 L0 4.75 Q0 3.1 1.05 1.8 2.15 0.4 3.75 0.15 5.4 -0.3 6.85 0.5 M2 27.3 Q2 28.15 2.6 28.95 3.25 29.75 4.2 29.95 L5.95 29.75 5.95 29.7 28.5 18.45 Q29.45 17.95 29.85 16.95 L29.85 17 Q30.2 16 29.85 14.95 29.45 14 28.55 13.6 L28.5 13.6 5.95 2.3 5.9 2.25 4.3 2.1 4.05 2.15 Q3.2 2.3 2.65 3.05 L2.6 3.05 Q2 3.8 2 4.75 L2 27.3"/>
  </g>
</svg>