<svg width="64" height="64" xmlns="http://www.w3.org/2000/svg" xmlns:xlink="http://www.w3.org/1999/xlink">
  <defs/>
  <g>
    <path stroke="none" fill="#FFEA9C" d="M62 6 L62 58 Q62 62 58 62 L28 62 27.2 61.95 26.8 61.95 26 62 6 62 Q2 62 2 58 L2 6 2.1 5.05 Q2.5 2 6 2 L26 2 26.8 2.05 27.2 2.05 28 2 58 2 Q61.5 2 61.95 5.05 L62 6 M27.45 4.05 L27.2 4.05 26.8 4.05 26.55 4.05 26 4 6 4 Q4.35 4 4.1 5.3 L4.05 5.5 4 6 4 58 Q4 60 6 60 L26 60 26.55 60 26.8 59.95 27.2 59.95 27.45 60 28 60 58 60 Q60 60 60 58 L60 24.55 60 24 60 6 59.95 5.3 60 5.35 Q59.65 4 58 4 L28 4 27.45 4.05"/>
    <path stroke="none" fill="#FFCC00" d="M27.45 4.05 L28 4 58 4 Q59.65 4 60 5.35 L59.95 5.3 60 6 60 24 60 24.55 60 58 Q60 60 58 60 L28 60 27.45 60 27.2 59.95 26.8 59.95 26.55 60 26 60 6 60 Q4 60 4 58 L4 6 4.05 5.5 4.1 5.3 Q4.35 4 6 4 L26 4 26.55 4.05 26.8 4.05 27.2 4.05 27.45 4.05"/>
    <path stroke="none" fill="#DEA312" d="M62 6 L61.95 5.05 Q61.5 2 58 2 L28 2 27.2 2.05 26.8 2.05 26 2 6 2 Q2.5 2 2.1 5.05 L2 6 2 58 Q2 62 6 62 L26 62 26.8 61.95 27.2 61.95 28 62 58 62 Q62 62 62 58 L62 6 M0 58.25 L0 6 Q0 0 6 0 L26 0 27 0.05 28 0 58 0 Q64 0 64 6 L64 58.25 Q63.85 64 58 64 L28 64 27 63.95 26 64 6 64 Q0.15 64 0 58.25"/>
  </g>
</svg>