<svg width="16" height="16" xmlns="http://www.w3.org/2000/svg" xmlns:xlink="http://www.w3.org/1999/xlink">
  <defs/>
  <g>
    <path stroke="none" fill="#DEA312" d="M10 16 L10 13.65 Q11.25 13.25 12.25 12.25 14 10.45 14 8.05 L14 8 13.9 6.85 Q13.55 5.15 12.25 3.85 11.25 2.85 10 2.45 L10 0 12 0 12 1 13.7 2.3 Q15.45 4.1 15.85 6.45 L16 7.8 16 8.25 Q15.95 11.3 13.7 13.65 L12 14.95 12 16 10 16 M6 0 L6 2.45 Q4.75 2.85 3.75 3.85 2.3 5.35 2.05 7.25 L2 7.85 2 8.15 Q2.05 10.5 3.75 12.25 4.75 13.25 6 13.65 L6 16 4 16 4 14.95 2.35 13.65 2 13.25 Q0.05 11.05 0 8.2 L0 7.8 0.15 6.5 Q0.5 4.35 2 2.65 L2.35 2.3 4 1 4 0 6 0"/>
    <path stroke="none" fill="#FFEA9C" d="M6 0 L10 0 10 2.45 Q11.25 2.85 12.25 3.85 13.55 5.15 13.9 6.85 L14 8 14 8.05 Q14 10.45 12.25 12.25 11.25 13.25 10 13.65 L10 16 6 16 6 13.65 Q4.75 13.25 3.75 12.25 2.05 10.5 2 8.15 L2 7.85 2.05 7.25 Q2.3 5.35 3.75 3.85 4.75 2.85 6 2.45 L6 0"/>
  </g>
</svg>